<?xml version="1.0" standalone="no"?>
<!DOCTYPE svg PUBLIC "-//W3C//DTD SVG 1.1//EN" "http://www.w3.org/Graphics/SVG/1.1/DTD/svg11.dtd" >
<svg xmlns="http://www.w3.org/2000/svg" xmlns:xlink="http://www.w3.org/1999/xlink" version="1.1">
<metadata></metadata>
<defs>
<font id="yanone_kaffeesatzregular" horiz-adv-x="418" >
<font-face units-per-em="1000" ascent="800" descent="-200" />
<missing-glyph horiz-adv-x="158" />
<glyph unicode="&#xfb01;" horiz-adv-x="402" d="M10 431q0 49 3 59t18 10h48v61q0 56 15.5 94t44 55t56 23t65.5 6q114 0 114 -49q0 -25 -8 -47q-46 22 -104 22q-49 0 -75.5 -20t-26.5 -83v-62h70q0 -48 -2.5 -58.5t-14.5 -10.5h-53v-414q0 -17 -16 -17h-65v431h-69zM357 17q0 -13 -10 -15t-72 -2v463q0 26 14.5 31.5 t67.5 5.5v-483z" />
<glyph unicode="&#xfb02;" horiz-adv-x="412" d="M236 738q76 0 130 -34v-687q0 -17 -16 -17h-65v664q-21 7 -44 7q-16 0 -27.5 -3t-25 -12t-21 -30t-7.5 -53v-73h80q0 -48 -2.5 -58.5t-14.5 -10.5h-63v-414q0 -17 -17 -17h-64v431h-69q0 49 3 59t18 10h48v61q0 177 157 177z" />
<glyph horiz-adv-x="0" />
<glyph horiz-adv-x="333" />
<glyph unicode="&#xd;" horiz-adv-x="158" />
<glyph unicode=" "  horiz-adv-x="158" />
<glyph unicode="&#x09;" horiz-adv-x="158" />
<glyph unicode="&#xa0;" horiz-adv-x="158" />
<glyph unicode="!" horiz-adv-x="195" d="M45 682q-1 17 18 20.5t93 3.5l-16 -454q-1 -26 -16.5 -32t-64.5 -6zM42 50q0 24 15 41t40 17q56 0 56 -58q0 -24 -15.5 -40.5t-40.5 -16.5q-55 0 -55 57z" />
<glyph unicode="&#x22;" horiz-adv-x="264" d="M90 586l-45 -3q-21 193 -11 199q15 11 77 1q0 -41 -8 -117t-13 -80zM213 586l-45 -3q-21 193 -11 199q15 11 77 1q0 -41 -8 -117t-13 -80z" />
<glyph unicode="#" d="M329 360l-6 -106h67q0 -64 -16 -64h-54l-4 -66q-1 -12 -14.5 -14.5t-56.5 -2.5l4 83h-95l-4 -66q-1 -12 -15 -14.5t-57 -2.5l5 83h-56q0 42 2.5 53t14.5 11h42l6 106h-65q0 42 2.5 53t14.5 11h51l3 63q1 12 15 14.5t57 2.5l-4 -80h95l4 63q1 12 15 14.5t56 2.5l-4 -80h58 q0 -64 -16 -64h-45zM157 254h95l6 106h-95z" />
<glyph unicode="$" d="M363 158q0 -139 -126 -161v-87q0 -20 -16.5 -26t-57.5 -6v115q-36 2 -62.5 10t-37.5 17t-11 17q0 9 6.5 32t15.5 33q36 -29 106 -29q93 0 93 85q0 28 -12 50t-43 55l-112 114q-53 57 -53 111q0 53 33 86t94 41v89q0 20 17.5 26.5t56.5 6.5v-121q35 -2 60 -9t34 -14t9 -12 q0 -33 -20 -57q-30 21 -98 21q-97 0 -97 -56q0 -34 43 -80l121 -121q57 -57 57 -130z" />
<glyph unicode="%" horiz-adv-x="691" d="M166 -8q-50 13 -50 31l403 686q46 -15 46 -35q0 -6 -99.5 -176.5t-199.5 -337.5zM44 525q0 183 142 183q70 0 101.5 -39.5t31.5 -142.5q0 -187 -139 -187q-48 0 -75.5 13.5t-44 55t-16.5 117.5zM122 523q0 -72 14 -96.5t46 -24.5q62 0 62 123q0 71 -13.5 95.5t-44.5 24.5 q-32 0 -48 -26.5t-16 -95.5zM372 177q0 183 142 183q70 0 101.5 -39.5t31.5 -142.5q0 -187 -139 -187q-48 0 -75.5 13.5t-44 55t-16.5 117.5zM449 173q0 -72 14 -96.5t46 -24.5q63 0 63 123q0 71 -13.5 95.5t-45.5 24.5t-48 -26.5t-16 -95.5z" />
<glyph unicode="&#x26;" horiz-adv-x="502" d="M404 129q56 -60 84 -74q-3 -24 -21 -44.5t-33 -20.5q-14 0 -73 64q-54 -64 -149 -64q-186 0 -186 180q0 60 32 108.5t81 79.5q-78 136 -78 210q0 68 43.5 103t123.5 35q64 0 106.5 -14t42.5 -33q0 -35 -20 -60q-49 35 -120 35q-44 0 -67.5 -15t-23.5 -61q0 -50 59 -153 t138 -203q7 40 7 89q0 132 -60 205q41 8 115 8q42 0 78 -3l1 -5q0 -5 0.5 -12t0.5 -13q0 -18 -8.5 -27t-33.5 -9l-49 1q11 -20 16 -32t12 -46t7 -77q0 -87 -25 -152zM207 67q65 0 101 48q-84 106 -134 184q-64 -47 -64 -131q0 -44 23 -72.5t74 -28.5z" />
<glyph unicode="'" horiz-adv-x="141" d="M90 586l-45 -3q-21 193 -11 199q15 11 77 1q0 -41 -8 -117t-13 -80z" />
<glyph unicode="(" horiz-adv-x="292" d="M148 323q-1 -158 37.5 -281.5t85.5 -176.5q-6 -31 -15.5 -45.5t-29.5 -14.5q-7 0 -24 18.5t-40.5 60.5t-45 99t-36.5 146.5t-15 190.5q0 94 15.5 178t37 137.5t45.5 93t40.5 57t22.5 17.5q19 0 28.5 -11t16.5 -41q-123 -162 -123 -428z" />
<glyph unicode=")" horiz-adv-x="292" d="M144 323q0 140 -35 252.5t-88 175.5q7 30 16.5 41t28.5 11q6 0 22.5 -16.5t41 -56t46 -92.5t37 -137.5t15.5 -180.5q0 -95 -15 -182.5t-36.5 -145.5t-45.5 -102t-41.5 -64.5t-23.5 -20.5q-34 0 -45 60q51 66 87.5 181.5t35.5 276.5z" />
<glyph unicode="*" horiz-adv-x="470" d="M258 519q-2 -12 -8.5 -15.5t-28.5 0.5l-22 163q-2 21 27 21.5t52 -11.5zM430 575q20 -16 23.5 -46t-14.5 -36l-159 -38q-21 28 2 40zM199 487q1 -17 -5.5 -24.5t-18.5 -3.5l-159 44q-1 34 18 54t35 12zM249 404q-5 9 -1 16t23 14l116 -135q13 -16 -10 -33t-50 -21z M187 423q18 18 37 -8l-88 -156q-16 -16 -36.5 -0.5t-33.5 41.5z" />
<glyph unicode="+" d="M245 317h139q0 -43 -2.5 -57t-13.5 -14h-123v-122q0 -12 -14 -14.5t-57 -2.5v139h-140q0 43 2.5 57t14.5 14h123v124q0 11 14 13.5t57 2.5v-140z" />
<glyph unicode="," horiz-adv-x="183" d="M43 55q0 22 14.5 37t36.5 15q55 0 55 -60q0 -49 -31 -99.5t-48 -50.5q-27 0 -32 23q25 42 28 86q-23 14 -23 49z" />
<glyph unicode="-" horiz-adv-x="278" d="M37 246q0 43 2.5 57t14.5 14h187q0 -43 -2.5 -57t-13.5 -14h-188z" />
<glyph unicode="." horiz-adv-x="183" d="M37 51q0 24 15 41t41 17q56 0 56 -58q0 -25 -15 -41t-41 -16q-56 0 -56 57z" />
<glyph unicode="/" horiz-adv-x="335" d="M100 0q-4 -14 -17 -17t-73 -3l225 763q3 11 9 15t22 5.5t59 1.5z" />
<glyph unicode="0" d="M29 296q0 152 43.5 228t138.5 76t136.5 -68.5t41.5 -211.5q0 -169 -41 -249t-142 -80q-99 0 -138 74t-39 231zM116 290q0 -124 20.5 -174.5t71.5 -50.5t73.5 60.5t22.5 195.5q0 107 -19.5 157t-69.5 50q-54 0 -76.5 -59.5t-22.5 -178.5z" />
<glyph unicode="1" d="M69 498q-12 24 -12 53q0 10 80.5 29.5t109.5 19.5q18 0 23 -5l-13 -518h74l58 3q0 -26 -0.5 -36.5t-1.5 -23t-4.5 -16.5t-9.5 -4h-343q-2 32 -2 57q0 20 144 20l11 439q-15 0 -43.5 -4.5t-49.5 -9.5z" />
<glyph unicode="2" d="M59 487q-10 24 -10 60q0 19 53.5 36t123.5 17q83 0 115.5 -33.5t32.5 -102.5q0 -48 -24.5 -99t-56.5 -89t-80 -96t-77 -103h134l118 7q0 -52 -2.5 -68t-13.5 -16h-340q-3 12 -3 25q0 20 4.5 32t19.5 39q28 46 72 101t76 92t56.5 81.5t24.5 82.5q0 69 -77 69 q-87 0 -146 -35z" />
<glyph unicode="3" d="M246 301q59 -6 95 -42.5t36 -106.5q0 -121 -62.5 -186.5t-163.5 -65.5q-53 0 -80 14t-27 35t11 60q36 -31 98 -31q65 0 101 47.5t36 124.5q0 103 -159 103l-2 52q63 30 98 70t35 82q0 65 -72 65q-79 0 -137 -35v-1q-11 22 -11 60q0 21 48.5 37.5t124.5 16.5 q139 0 139 -119q0 -101 -108 -180z" />
<glyph unicode="4" d="M316 206l74 3q4 -8 4 -29q-2 -50 -27 -50h-51v-104q0 -20 -10 -23t-71 -3v130h-181q-26 26 -26 72q0 41 77.5 193t130.5 197q19 14 37 14q26 0 46 -12zM235 206l11 288q-38 -44 -85 -133.5t-63 -154.5h137z" />
<glyph unicode="5" d="M377 600q0 -47 -7.5 -60t-35.5 -13l-194 4l-15 -150q30 5 58 5q196 3 196 -192q0 -138 -57.5 -216t-173.5 -78q-37 0 -64.5 7.5t-38.5 16.5t-11 17q0 40 9 66q34 -31 97 -31q77 0 115 58t38 143q0 81 -39 111t-116 30q-49 0 -96 -13l29 295h306z" />
<glyph unicode="6" d="M246 439q67 0 106 -47t39 -147q0 -253 -190 -253q-45 0 -76.5 15t-50 39.5t-28 67.5t-12.5 86t-3 108q0 394 227 394q109 0 109 -34q0 -33 -8 -58q-42 15 -94 15q-145 0 -156 -257q46 71 137 71zM205 64q50 0 78 46t28 118q0 136 -89 136q-66 0 -113 -74v-6 q-2 -115 21.5 -167.5t74.5 -52.5z" />
<glyph unicode="7" d="M404 600q-101 -198 -161.5 -363.5t-79.5 -324.5q-48 0 -65.5 4t-17.5 18q19 149 83.5 322t129.5 275q-51 -4 -226 -4q-23 0 -23 73h360z" />
<glyph unicode="8" d="M332 323q59 -61 59 -141q0 -83 -45 -136.5t-129 -53.5q-95 0 -140.5 53t-45.5 139q0 62 31.5 112t82.5 80q-45 31 -65 53q-42 40 -42 105q0 83 49 127.5t122 44.5q178 0 178 -162q0 -101 -108 -175q38 -30 53 -46zM220 629q-44 0 -72 -22.5t-28 -67.5q0 -49 39 -81 q13 -14 60 -46q93 58 93 129q0 44 -26.5 66t-65.5 22zM212 70q46 0 73 30.5t27 83.5q0 61 -44 101q-20 19 -58 47q-103 -55 -103 -144q0 -54 28 -86t77 -32z" />
<glyph unicode="9" d="M217 609q104 0 137 -65t35 -247q-2 -205 -62 -303t-189 -98q-90 0 -90 33q0 27 8 55q33 -10 72 -10q91 0 132 66t49 187q-47 -70 -136 -70q-65 0 -105.5 53t-40.5 148q0 251 190 251zM197 232q67 0 114 73v5q0 122 -18.5 174.5t-74.5 52.5q-52 0 -81.5 -43t-29.5 -126 q0 -65 24 -100.5t66 -35.5z" />
<glyph unicode=":" horiz-adv-x="183" d="M37 386q0 24 15.5 41t40.5 17q56 0 56 -58q0 -25 -15 -41t-41 -16q-56 0 -56 57zM37 51q0 24 15.5 41t40.5 17q56 0 56 -58q0 -25 -15 -41t-41 -16q-56 0 -56 57z" />
<glyph unicode=";" horiz-adv-x="183" d="M35 386q0 24 15.5 41t40.5 17q56 0 56 -58q0 -25 -15 -41t-41 -16q-56 0 -56 57zM39 55q0 22 14 37t36 15q55 0 55 -60q0 -49 -30.5 -99.5t-47.5 -50.5q-27 0 -32 23q25 45 28 86q-23 14 -23 49z" />
<glyph unicode="&#x3c;" horiz-adv-x="400" d="M145 255l215 -96q-1 -25 -12 -44t-24 -19q-11 0 -28 7l-244 108q-13 23 -13 47q0 31 26 44l264 129q27 -26 29 -54q0 -18 -15 -25z" />
<glyph unicode="=" d="M34 339q0 43 2.5 57t14.5 14h333q0 -43 -2.5 -57t-13.5 -14h-334zM34 153q0 43 2.5 57t14.5 14h333q0 -43 -2.5 -57t-13.5 -14h-334z" />
<glyph unicode="&#x3e;" horiz-adv-x="400" d="M259 261l-216 96q1 25 13 44t24 19q10 0 27 -7l244 -108q14 -22 14 -47q0 -30 -27 -44l-264 -129q-26 26 -28 54q0 18 14 25z" />
<glyph unicode="?" horiz-adv-x="295" d="M144 710q65 0 102 -35.5t37 -103.5q0 -54 -17.5 -95.5t-51 -85t-42.5 -59.5q-15 -31 -9 -71t3 -43q-6 -8 -30.5 -10t-42.5 2q-4 8 -9 22t-5 51.5t17 69.5q14 27 43 66.5t43 69t14 63.5q0 77 -82 77q-46 0 -83 -25q-12 34 -12 64q0 17 39.5 30t85.5 13zM74 51 q0 24 15.5 41t40.5 17q56 0 56 -58q0 -25 -15 -41t-41 -16q-56 0 -56 57z" />
<glyph unicode="@" horiz-adv-x="738" d="M369 -111q131 0 232 43q22 -29 22 -58q0 -15 -29 -29.5t-87.5 -24.5t-131.5 -10q-62 0 -105.5 7.5t-88.5 34.5t-72 75t-44.5 133t-17.5 204q0 214 92 316t255 102q151 0 225 -74.5t74 -248.5q0 -357 -161 -357q-35 0 -62 23q-30 -24 -108 -24q-62 -1 -94 29.5t-31 124.5 q3 163 127 163q38 0 58 -11q2 35 2 61q1 32 -14 45t-46 13q-54 0 -100 -25q-9 17 -9 47q1 12 9 20q45 26 127 26q57 0 84 -26t26 -90l-5 -201q-1 -54 -5 -98q19 -7 32 -7q15 0 29.5 14t27.5 43.5t21 83.5t8 125q0 152 -47 212t-170 60q-89 0 -144.5 -31.5t-86.5 -111.5 t-31 -214q0 -111 15 -183.5t47 -111.5t73.5 -54t103.5 -15zM418 115l4 143q-21 3 -35 3q-35 0 -53.5 -24t-19.5 -85q0 -52 13 -71t41 -19q49 0 50 53z" />
<glyph unicode="A" horiz-adv-x="437" d="M431 15q2 -9 -5 -13t-30 -4q-28 0 -48 2l-43 178h-173l-38 -164q-2 -6 -4.5 -9t-10 -5t-23.5 -2q-22 0 -51 3l178 688q3 14 31 14q24 0 38 -3zM150 252h138l-34 142q-26 108 -35 192q-10 -81 -35 -192z" />
<glyph unicode="B" horiz-adv-x="376" d="M43 681q0 19 27 19h99q168 0 168 -155q0 -75 -29 -115.5t-67 -45.5q118 -8 118 -146q0 -120 -53 -179t-137 -59h-126v681zM126 414h49q33 0 53 29t20 87q0 98 -74 98h-48v-214zM126 71h45q41 0 67 39.5t26 120.5q0 71 -22.5 92t-69.5 21h-46v-273z" />
<glyph unicode="C" horiz-adv-x="340" d="M227 713q94 0 94 -55q0 -23 -13 -49q-28 25 -65 25q-27 0 -47.5 -12t-40 -43t-30 -95t-10.5 -158q0 -143 25.5 -196t74.5 -53q55 0 92 31q13 -24 13 -49q0 -30 -35 -51t-89 -21q-31 0 -54 6.5t-45 27.5t-36 56.5t-22.5 97t-8.5 146.5q0 99 12 172t31 114t46.5 66 t52.5 32.5t55 7.5z" />
<glyph unicode="D" horiz-adv-x="387" d="M168 700q68 0 109.5 -27.5t64 -97t22.5 -189.5q0 -211 -49 -298.5t-146 -87.5h-125v681q0 19 27 19h97zM271 394q0 133 -23.5 182t-76.5 49h-46v-548h45q22 0 38 11.5t31.5 42.5t23.5 97.5t8 165.5z" />
<glyph unicode="E" horiz-adv-x="320" d="M126 343v-270h171q0 -52 -2 -62.5t-14 -10.5h-237v684q1 16 17 16h240q0 -51 -2 -62t-14 -11h-159v-209h150q0 -49 -2 -62t-13 -13h-135z" />
<glyph unicode="F" horiz-adv-x="312" d="M61 700h240q0 -50 -2 -60t-14 -10h-159v-212h150q0 -49 -2 -61.5t-13 -12.5h-135v-327q1 -17 -16 -17h-66v684q1 16 17 16z" />
<glyph unicode="G" horiz-adv-x="385" d="M245 709q48 0 77 -15t29 -35q0 -26 -10 -51q-31 24 -80 24q-78 0 -111 -64t-33 -228q0 -115 13 -175.5t33.5 -77.5t56.5 -17q44 0 59 24v248h-74v52q0 17 19 17h131v-376q-53 -44 -137 -44q-70 0 -109 27t-59 102t-20 214q0 92 10 159t27.5 108.5t45.5 65.5t59 33t73 9z " />
<glyph unicode="H" horiz-adv-x="409" d="M365 17q0 -13 -10 -15t-71 -2v341h-159v-324q0 -13 -10 -15t-71 -2v684q0 12 10 14t71 2v-285h159v269q0 12 10 14t71 2v-683z" />
<glyph unicode="I" horiz-adv-x="169" d="M43 663q0 28 11 32.5t72 4.5v-683q0 -13 -10.5 -15t-72.5 -2v663z" />
<glyph unicode="J" horiz-adv-x="300" d="M174 663q0 28 10 32.5t72 4.5v-535q0 -83 -30 -128.5t-107 -45.5q-56 0 -80.5 17t-24.5 42q0 22 12 46q37 -33 83 -33q41 0 53 27.5t12 92.5v480z" />
<glyph unicode="K" horiz-adv-x="389" d="M335 701q45 0 33 -24l-161 -279q121 -92 160 -380q1 -12 -5.5 -16t-27.5 -4q-27 0 -57 3q-23 126 -47.5 200t-64.5 117q-17 17 -40 27v-328q0 -13 -10.5 -15t-72.5 -2v684q0 12 10.5 14t72.5 2v-301l158 296q28 6 52 6z" />
<glyph unicode="L" horiz-adv-x="314" d="M125 76h172v-59q0 -17 -16 -17h-238v677q0 17 10.5 20t71.5 3v-624z" />
<glyph unicode="M" horiz-adv-x="489" d="M379 700h66v-683q0 -13 -10.5 -15t-72.5 -2l3 243q4 124 19 299q-58 -206 -65 -228l-53 -152q-2 -8 -11 -8h-35l-52 160q-9 26 -64 226l-1 -1q18 -185 19 -292l2 -230q0 -13 -11.5 -15t-69.5 -2v684q0 16 17 16h59l95 -302l32 -111q17 70 29 108l88 289q5 16 16 16z" />
<glyph unicode="N" horiz-adv-x="444" d="M320 684q0 12 10.5 14t70.5 2v-683q0 -17 -17 -17h-61l-114 275q-26 65 -95 283q11 -119 11 -299v-242q0 -13 -10.5 -15t-71.5 -2v684q0 16 17 16h62l112 -270q28 -74 95 -282v3q-9 77 -9 297v236z" />
<glyph unicode="O" horiz-adv-x="429" d="M30 354q0 195 46 275t146 80q98 0 137.5 -76t39.5 -276q0 -202 -44 -284t-144 -82q-68 0 -105.5 30.5t-56.5 109.5t-19 223zM121 334q0 -142 20.5 -201t72.5 -59q54 0 75.5 63.5t21.5 217.5q0 152 -19.5 211.5t-72.5 59.5t-75.5 -65.5t-22.5 -226.5z" />
<glyph unicode="P" horiz-adv-x="360" d="M159 700q95 0 139.5 -47t44.5 -151q0 -115 -50.5 -166.5t-132.5 -51.5h-35v-267q0 -13 -10.5 -15t-71.5 -2v684q0 16 17 16h48h51zM168 359q43 0 64 35.5t21 117.5q0 117 -79 117h-49v-270h43z" />
<glyph unicode="Q" horiz-adv-x="429" d="M398 -53q12 -18 12 -44q0 -21 -28.5 -30.5t-61.5 -9.5q-51 0 -82 30.5t-48 97.5q-59 5 -93 38.5t-50.5 111t-16.5 213.5q0 195 46 275t146 80q98 0 137.5 -76t39.5 -276q0 -163 -28 -246t-89 -108q7 -40 19 -56.5t35 -16.5q37 0 62 17zM121 334q0 -142 20.5 -201 t72.5 -59q54 0 75.5 63.5t21.5 217.5q0 152 -19.5 211.5t-72.5 59.5t-75.5 -65.5t-22.5 -226.5z" />
<glyph unicode="R" horiz-adv-x="372" d="M350 19q0 -13 -7 -17t-34 -4q-12 0 -48 2q-11 188 -82 285q-6 -1 -19 -1h-35v-267q0 -13 -10.5 -15t-71.5 -2v684q0 16 17 16h48h51q95 0 139.5 -47t44.5 -151q0 -146 -87 -195q82 -111 94 -288zM125 359h43q43 0 64 34.5t21 112.5q0 123 -79 123h-49v-270z" />
<glyph unicode="S" horiz-adv-x="358" d="M198 710q131 0 131 -50q0 -26 -20 -47q-30 25 -98 25q-45 0 -71 -18t-26 -51q0 -44 46 -99l108 -123q38 -45 52.5 -83t14.5 -86q0 -84 -42 -136t-137 -52q-63 0 -97 18t-34 42q0 31 21 58q39 -35 103 -35q98 0 98 102q0 35 -12.5 63.5t-45.5 66.5l-100 117 q-63 77 -63 144q0 65 45 104.5t127 39.5z" />
<glyph unicode="T" horiz-adv-x="373" d="M25 700h340v-59q0 -17 -17 -17h-123v-608q0 -12 -10.5 -14t-70.5 -2v624h-136v60q0 16 17 16z" />
<glyph unicode="U" horiz-adv-x="437" d="M127 202q0 -69 19 -103t77 -34q54 0 88 18v600q0 13 10.5 15t71.5 2v-674q-21 -14 -68 -25t-102 -11q-47 0 -80.5 11.5t-52.5 30t-30 47.5t-14 57.5t-3 67.5v479q0 13 10.5 15t73.5 2v-498z" />
<glyph unicode="V" horiz-adv-x="420" d="M7 676q-4 13 -0.5 18.5t18.5 5.5h66l83 -387q10 -54 40 -244q18 147 36 244l74 363q2 13 6 18.5t15 5.5h71l-154 -703q-29 -4 -68 -4q-34 0 -48 58q-18 72 -52.5 228.5t-60.5 276.5z" />
<glyph unicode="W" horiz-adv-x="654" d="M581 700h69l-131 -703q-48 -5 -68 -5q-33 0 -44 57l-51 224q-12 63 -31 230q-22 -187 -29 -229l-54 -277q-35 -4 -75 -4q-29 0 -41 62l-119 621q-2 8 -1.5 13.5t5 8t13.5 2.5h67l72 -387q14 -77 30 -225h6q6 112 26 225l61 329q2 10 3.5 14.5t5.5 7.5t12 3h35h23l70 -354 q13 -69 30 -224h6q11 134 25 224l64 363q2 13 6 18.5t15 5.5z" />
<glyph unicode="X" horiz-adv-x="424" d="M411 14q8 -14 -8 -14h-89l-54 135q-19 49 -53 147q-31 -92 -55 -147l-54 -124q-6 -11 -18 -11h-71l153 362l-126 324q-4 10 8 12t88 2l41 -113q19 -53 48 -150q26 87 50 150l38 100q3 10 14 11.5t74 1.5l-129 -332z" />
<glyph unicode="Y" horiz-adv-x="364" d="M225 288v-271q0 -13 -10 -15t-71 -2v284l-138 403q-3 9 7 11q11 2 85 2l40 -137q15 -48 31 -117.5t18 -91.5q2 21 19 90.5t31 118.5l35 122q4 11 15 13t73 2z" />
<glyph unicode="Z" horiz-adv-x="385" d="M36 683q0 17 17 17h299q8 -13 8 -27q0 -17 -8 -36l-243 -564h193q40 0 59 7v-63q0 -17 -17 -17h-312q-13 11 -13 32q0 19 8 36l239 559h-186q-35 0 -44 -3v59z" />
<glyph unicode="[" horiz-adv-x="385" d="M376 821q0 -51 -4 -63t-23 -12h-146v-869h172q0 -54 -4.5 -65t-22.5 -11h-227v995q0 17 9 21t54 4h192z" />
<glyph unicode="\" horiz-adv-x="330" d="M318 -10q4 -14 -9 -17q-12 -3 -72 -3l-225 773q-5 15 8 19q13 3 72 3z" />
<glyph unicode="]" horiz-adv-x="385" d="M9 -200q0 51 4 63t23 12h146v871h-172q0 54 4.5 65t22.5 11h227v-997q0 -17 -9 -21t-53 -4h-193z" />
<glyph unicode="^" horiz-adv-x="430" d="M110 218q-16 -10 -25 -10q-16 0 -26 12.5t-11 29.5l173 148l145 -127q14 -11 14 -27q0 -14 -11 -25t-28 -13l-129 87z" />
<glyph unicode="_" horiz-adv-x="377" d="M14 -109q0 43 2.5 57t13.5 14h334q0 -43 -2.5 -57t-14.5 -14h-333z" />
<glyph unicode="`" horiz-adv-x="172" d="M140 571q-6 0 -67.5 44t-72.5 57q4 22 14.5 42t23.5 20q7 0 62.5 -48t71.5 -70q-13 -45 -32 -45z" />
<glyph unicode="a" horiz-adv-x="354" d="M30 455q0 21 11 28q15 10 57.5 18.5t94.5 8.5q66 0 95 -28t29 -94v-53q0 -220 -6 -311q-57 -34 -139 -34q-32 0 -54 4.5t-44 19t-33.5 47t-11.5 81.5q0 95 36.5 129.5t96.5 34.5q47 0 73 -13v79q0 34 -15 46.5t-47 12.5q-79 0 -132 -22q-11 20 -11 46zM235 236 q-20 9 -47 9q-35 0 -54.5 -20.5t-19.5 -80.5q0 -51 16 -68.5t49 -17.5q36 0 53 17q3 33 3 161z" />
<glyph unicode="b" horiz-adv-x="385" d="M47 697q0 27 13.5 32.5t67.5 5.5v-260q43 35 107 35q62 0 92 -45.5t30 -151.5q0 -83 -12.5 -144t-31 -94.5t-46 -53.5t-51 -25.5t-52.5 -5.5q-79 0 -117 30v677zM128 75q17 -13 47 -13q16 0 29.5 8.5t28.5 31t24 72t9 121.5q0 78 -16 110t-52 32q-39 0 -70 -28v-334z" />
<glyph unicode="c" horiz-adv-x="312" d="M293 465q0 -22 -8 -45q-32 18 -71 18q-20 0 -35 -6.5t-31 -25.5t-24.5 -61.5t-8.5 -105.5q0 -102 21 -139.5t68 -37.5t79 24q8 -24 8 -45t-31.5 -36t-79.5 -15q-39 0 -64.5 9.5t-45.5 35.5t-29.5 76t-9.5 128q0 69 11 120t28 79.5t42 45t47.5 21.5t50.5 5q35 0 59 -13 t24 -32z" />
<glyph unicode="d" horiz-adv-x="380" d="M255 698q0 26 14 31.5t67 5.5v-715q-62 -30 -143 -30q-30 0 -51 4t-43.5 18.5t-36 40t-22.5 71t-9 108.5q0 141 42 209.5t111 68.5q45 0 71 -20v208zM255 426q-17 13 -46 13q-88 0 -88 -198q0 -105 18 -141.5t57 -36.5q37 0 59 15v348z" />
<glyph unicode="e" horiz-adv-x="360" d="M207 69q59 0 113 31q8 -20 8 -55q0 -23 -41 -39t-98 -16q-38 0 -65 9.5t-49.5 34t-34 72t-11.5 118.5q0 90 14.5 149.5t42 88t55.5 38.5t66 10q127 0 127 -161q0 -82 -12 -130q-66 -13 -208 -16q2 -77 23.5 -105.5t69.5 -28.5zM197 439q-75 0 -83 -170q99 0 136 11 q5 23 5 60q-1 55 -13.5 77t-44.5 22z" />
<glyph unicode="f" horiz-adv-x="255" d="M12 431q0 49 3 59t19 10h47v61q0 55 15 92.5t41.5 55t52.5 24t59 6.5q93 0 93 -41q0 -24 -9 -45q-29 12 -71 12q-47 0 -73.5 -19.5t-26.5 -78.5v-67h90q0 -48 -2.5 -58.5t-14.5 -10.5h-73v-414q0 -17 -16 -17h-65v431h-69z" />
<glyph unicode="g" horiz-adv-x="393" d="M383 464q0 -32 -28 -32q-14 0 -36 5q38 -36 38 -108q0 -175 -162 -175q-26 0 -45 4q-26 -26 -26 -44q0 -11 22 -16.5t72 -11.5l24 -3q65 -10 98.5 -35.5t33.5 -81.5q0 -70 -48.5 -116.5t-142.5 -46.5q-161 0 -161 109q0 70 77 121q-31 9 -47 22t-15 32q1 41 64 91 q-62 40 -62 149q0 183 166 183q26 0 49 -8h121q8 -14 8 -38zM199 216q76 0 76 132q0 102 -73 102q-35 0 -56 -29.5t-21 -91.5q0 -58 15 -85.5t59 -27.5zM292 -45q0 33 -23.5 46t-90.5 18q-3 0 -8.5 0.5t-8.5 1.5q-55 -40 -55 -90q0 -26 18 -39.5t66 -13.5q49 0 75.5 23.5 t26.5 53.5z" />
<glyph unicode="h" horiz-adv-x="380" d="M45 698q0 26 13.5 31.5t67.5 5.5v-264q45 39 112 39q61 0 82.5 -31.5t21.5 -100.5v-361q0 -13 -11.5 -15t-72.5 -2v355q0 38 -11.5 59t-45.5 21q-43 0 -75 -28v-390q0 -13 -10.5 -15t-70.5 -2v698z" />
<glyph unicode="i" horiz-adv-x="175" d="M47 659q2 60 47 60q23 0 32 -13t8 -45q0 -65 -46 -65q-21 1 -31 15t-10 48zM129 17q0 -13 -10.5 -15t-72.5 -2v463q0 26 14.5 31.5t68.5 5.5v-483z" />
<glyph unicode="j" horiz-adv-x="184" d="M52 659q2 60 47 60q23 0 32 -13t8 -45q0 -65 -46 -65q-21 1 -31 15t-10 48zM135 -36q0 -75 -28 -117.5t-103 -42.5q-106 0 -106 53q0 26 12 42q34 -20 84 -20q37 0 48.5 21.5t11.5 76.5v486q0 26 14 31.5t67 5.5v-536z" />
<glyph unicode="k" horiz-adv-x="376" d="M46 698q0 26 14 31.5t68 5.5v-271q54 46 125 46q85 0 85 -86q0 -89 -83 -155q39 -17 66 -60.5t33 -108.5q3 -43 -2 -84q-2 -12 -13 -14t-79 -2q8 74 -1 123q-9 57 -33 83t-54 20q-8 -2 -19 -6.5t-18 -8.5l-7 -4v-190q0 -13 -10 -15t-72 -2v698zM248 396q0 41 -37 41 q-44 0 -83 -48v-124q120 49 120 131z" />
<glyph unicode="l" horiz-adv-x="173" d="M127 17q0 -13 -10 -15t-71 -2v698q0 26 14 31.5t67 5.5v-718z" />
<glyph unicode="m" horiz-adv-x="563" d="M410 510q70 0 91 -32.5t21 -108.5v-352q0 -13 -11 -15t-70 -2v370q0 38 -10 53t-39 15q-37 0 -67 -19v-402q0 -13 -9.5 -15t-70.5 -2h-1v372q0 40 -8.5 53.5t-40.5 13.5q-35 0 -68 -17v-405q0 -13 -10.5 -15t-70.5 -2v477q73 33 151 33q61 0 90 -31q57 31 123 31z" />
<glyph unicode="n" horiz-adv-x="382" d="M45 476q78 34 158 34q78 0 109.5 -30.5t31.5 -103.5v-359q0 -13 -11 -15t-73 -2v352q0 49 -11.5 68t-47.5 19q-42 0 -75 -18v-404q0 -13 -10.5 -15t-70.5 -2v476z" />
<glyph unicode="o" horiz-adv-x="376" d="M27 250q0 260 166 260q83 0 119.5 -55t36.5 -202q0 -137 -41.5 -200t-123.5 -63q-42 0 -68.5 9t-48 36t-31 79.5t-9.5 135.5zM115 248q0 -115 16.5 -152t54.5 -37q36 0 55 42t19 151q0 113 -15.5 150t-54.5 37q-37 0 -56 -41t-19 -150z" />
<glyph unicode="p" horiz-adv-x="382" d="M46 470q63 40 146 40q80 0 121.5 -46t41.5 -162q0 -312 -149 -312q-51 0 -79 28v-208q-18 -7 -42 -7q-21 0 -30 7.5t-9 27.5v632zM127 96q20 -33 54 -33q84 0 84 230q0 85 -18 115.5t-59 30.5q-34 0 -61 -19v-324z" />
<glyph unicode="q" horiz-adv-x="386" d="M342 -163q0 -23 -8.5 -28.5t-39.5 -6.5q-19 0 -34 3v229q-30 -44 -95 -44q-27 0 -48.5 8.5t-42.5 31.5t-32.5 70.5t-11.5 117.5q0 155 56 223.5t149 68.5q63 0 107 -31v-642zM260 425q-16 14 -46 14q-46 0 -69 -50.5t-23 -168.5q0 -157 72 -159q46 0 66 51v313z" />
<glyph unicode="r" horiz-adv-x="263" d="M45 465q63 45 136 45q70 0 70 -42q0 -26 -9 -48q-22 12 -48 12q-39 0 -66 -23l-1 -392q0 -13 -10.5 -15t-71.5 -2v465z" />
<glyph unicode="s" horiz-adv-x="345" d="M194 510q47 0 77.5 -10.5t39.5 -22t9 -23.5q0 -21 -18 -41q-43 26 -98 26q-36 0 -57.5 -12.5t-21.5 -35.5q0 -28 40 -62l93 -75q32 -32 45.5 -60t13.5 -65q0 -66 -44 -102.5t-121 -36.5q-122 0 -122 51q0 25 14 47q43 -25 100 -25q38 0 59.5 16t21.5 46q0 42 -40 78 l-97 83q-57 47 -57 106q0 55 41 86.5t122 31.5z" />
<glyph unicode="t" horiz-adv-x="291" d="M87 430h-69q0 47 2.5 58.5t15.5 11.5h51v152q0 20 14 24t67 4v-180h102q0 -49 -2 -59.5t-14 -10.5h-86v-291q0 -28 1 -41t9.5 -25.5t25.5 -12.5q28 0 58 15q6 -22 6 -40q0 -45 -86 -45q-59 0 -77 36t-18 113v291z" />
<glyph unicode="u" horiz-adv-x="388" d="M343 26q-65 -36 -149 -36q-86 0 -118 39t-32 127v328q0 12 10.5 14t73.5 2v-351q0 -50 13.5 -69t53.5 -19t67 18v405q0 12 10.5 14t70.5 2v-474z" />
<glyph unicode="v" horiz-adv-x="344" d="M18 475q-4 19 8 22t79 3l32 -160q9 -46 19 -109.5t15 -103.5l5 -40h2q17 149 38 254l26 141q2 13 13 15.5t73 2.5l-115 -503q-15 -3 -57 -3q-24 0 -36 49z" />
<glyph unicode="w" horiz-adv-x="540" d="M446 482q1 13 12 15.5t68 2.5q-104 -503 -108 -503q-18 -3 -52 -3q-13 0 -25.5 13.5t-17.5 38.5l-13 67q-22 108 -36 249q-19 -165 -36 -249l-23 -116q-42 -3 -68 -3q-23 0 -35 49l-97 440q-1 12 11.5 14.5t77.5 2.5l30 -163q9 -49 18 -110t13 -97l4 -36h6q21 148 28 184 l31 191q2 11 7 14.5t20 3.5h22h31l39 -211q8 -33 15.5 -78.5t11.5 -74.5l4 -29h5q11 128 31 243z" />
<glyph unicode="x" horiz-adv-x="410" d="M391 19q6 -14 -2 -16q-8 -3 -88 -3l-37 66q-32 58 -65 134q-36 -82 -63 -135l-28 -49q-5 -12 -19.5 -14t-73.5 -2l141 260l-121 227q-5 9 3 11q10 2 82 2l37 -68q9 -17 19.5 -39.5l21 -45t13.5 -29.5q28 66 54 114l30 54q5 10 17 12t74 2l-128 -234z" />
<glyph unicode="y" horiz-adv-x="356" d="M24 478q-4 16 5.5 19t73.5 3l54 -238q7 -36 14 -80.5t10 -71.5l3 -26q10 97 24 179l44 213q3 18 14.5 21t73.5 3l-123 -527q-22 -94 -53 -130t-86 -36q-82 0 -82 39q0 30 12 46q23 -16 63 -16q53 0 73 108z" />
<glyph unicode="z" horiz-adv-x="334" d="M305 500q9 -8 9 -25q0 -16 -10 -40l-188 -360h88q61 0 105 11q3 -14 3 -36q-1 -27 -7.5 -38.5t-25.5 -11.5h-245q-13 12 -13 40q0 18 6 31l194 360h-102q-63 0 -91 -4q-3 17 -3 38q0 35 26 35h254z" />
<glyph unicode="{" horiz-adv-x="277" d="M244 744q15 -20 15 -50q0 -26 -14 -29q-73 -6 -73 -80q0 -22 5 -83.5t5 -99.5q0 -45 -13.5 -67.5t-40.5 -34.5q28 -11 41 -31.5t13 -63.5q0 -38 -5 -98.5t-5 -84.5q0 -54 18.5 -72.5t62.5 -24.5q2 -26 2 -31q0 -44 -28 -44q-73 0 -105.5 33.5t-32.5 101.5q0 34 7 96.5 t7 100.5t-13 55t-42 23q-7 13 -7 33q0 27 17 41q17 11 24 17t14 25.5t7 50.5q0 37 -7 104t-7 95q0 116 155 118z" />
<glyph unicode="|" horiz-adv-x="323" d="M203 -180q0 -15 -11 -17.5t-71 -2.5v993q0 16 11 19t71 3v-995z" />
<glyph unicode="}" horiz-adv-x="277" d="M33 -150q-15 22 -15 51q0 25 15 28q72 6 72 80q0 22 -5 83t-5 99q0 46 13.5 69t39.5 34q-27 11 -40 32t-13 63q0 38 5 98.5t5 84.5q0 53 -18.5 72t-61.5 25q-4 17 -4 31q0 44 30 44q72 0 104.5 -33.5t32.5 -101.5q0 -34 -7 -96.5t-7 -100.5t13 -55t42 -23q7 -15 7 -33 q0 -29 -18 -40q-16 -12 -23 -18t-14 -25.5t-7 -50.5q0 -38 7 -104.5t7 -94.5q0 -60 -42 -89t-113 -29z" />
<glyph unicode="~" horiz-adv-x="400" d="M11 266q14 24 50.5 43.5t78.5 19.5q36 0 70 -21.5t60 -21.5q41 0 70 35q18 12 33.5 -2.5t17.5 -42.5q-18 -25 -51 -44.5t-77 -19.5q-38 0 -73.5 22t-57.5 22t-50 -18.5t-36 -19.5q-14 -1 -24 12t-11 36z" />
<glyph unicode="&#xa1;" horiz-adv-x="195" d="M158 451q0 -24 -15 -41t-41 -17q-56 0 -56 58q0 24 15.5 40.5t40.5 16.5q56 0 56 -57zM155 -173q1 -17 -18 -20.5t-93 -3.5l16 452q1 25 16.5 31t65.5 6z" />
<glyph unicode="&#xa2;" d="M257 65q42 0 78 23q8 -24 8 -51q0 -14 -24.5 -28.5t-55.5 -17.5v-92q0 -20 -16.5 -26t-57.5 -6v126q-55 9 -80.5 58.5t-25.5 176.5q0 243 129 276v87q0 20 17.5 27t56.5 7v-118q24 -4 41.5 -13.5t17.5 -18.5q0 -37 -9 -59q-31 18 -67 18q-22 0 -38 -6.5t-32.5 -25.5 t-25.5 -62t-9 -109q0 -75 11 -111.5t28.5 -45.5t53.5 -9z" />
<glyph unicode="&#xa3;" horiz-adv-x="366" d="M166 81l156 -7q6 -16 6 -37q0 -37 -51 -37h-188q-10 115 -12 277h-62q0 43 2.5 57t14.5 14h46q4 132 44.5 189.5t115.5 57.5q42 0 70.5 -13.5t28.5 -39.5q0 -23 -10 -50q-33 21 -71 21q-46 0 -71 -35.5t-26 -129.5h129q0 -43 -2.5 -57t-13.5 -14h-113q0 -109 7 -196z" />
<glyph unicode="&#xa5;" d="M249 288v-44h130q0 -39 -6 -53.5t-26 -14.5h-98v-159q0 -13 -9.5 -15t-71.5 -2v176h-130q0 39 6 53.5t26 14.5h98v40l-19 57h-111q0 39 6 53.5t26 14.5h55l-95 278q-3 9 7 11q11 2 85 2l39 -137q45 -144 48 -190q5 54 50 190l37 122q4 11 15 13t73 2l-95 -291h90 q0 -39 -6 -53.5t-26 -14.5h-80z" />
<glyph unicode="&#xa6;" horiz-adv-x="227" d="M154 354q0 -17 -8 -22.5t-34 -5.5q-22 0 -39 4v381q0 18 9 25t33 7q21 0 39 -6v-383zM154 -169q0 -18 -8 -23.5t-34 -5.5q-23 0 -39 5v385q0 18 9 25.5t33 7.5q21 0 39 -6v-388z" />
<glyph unicode="&#xa7;" horiz-adv-x="348" d="M255 212l9 -11q37 -48 37 -89q0 -53 -43 -84.5t-109 -31.5q-44 0 -72 13.5t-34 29.5q-3 6 -3 16q0 28 16 50q34 -23 80 -23q34 0 53 13t19 33q0 22 -30 57q-7 8 -48.5 48.5t-58.5 62.5q-36 45 -36 92q0 62 56 100q-4 4 -8 10q-37 47 -37 89q0 54 42.5 85t108.5 31 q44 0 72 -13t35 -29q3 -9 3 -17q0 -25 -16 -50q-32 23 -81 23q-34 0 -53 -12.5t-19 -33.5q0 -23 30 -57q3 -4 46.5 -46t60.5 -65q36 -45 36 -91q0 -61 -56 -100zM141 315q15 -20 54 -50q17 7 28.5 23.5t11.5 30.5q0 28 -29 65q-14 18 -55 50q-18 -6 -29 -22t-11 -30 q0 -31 30 -67z" />
<glyph unicode="&#xa8;" horiz-adv-x="241" d="M0 639q0 21 13.5 36t35.5 15q50 0 50 -51q0 -22 -13.5 -36.5t-36.5 -14.5q-49 0 -49 51zM143 639q0 21 13 36t35 15q50 0 50 -51q0 -22 -13.5 -36.5t-36.5 -14.5q-48 0 -48 51z" />
<glyph unicode="&#xa9;" horiz-adv-x="472" d="M36 541q0 219 206 219q101 0 147.5 -49.5t46.5 -167.5q0 -108 -52 -165.5t-150 -57.5q-101 0 -149.5 51t-48.5 170zM97 541q0 -89 33.5 -125.5t101.5 -36.5q64 0 103 40t39 125q0 83 -33 122t-100 39q-144 0 -144 -164zM294 652q0 -11 -6 -32q-23 7 -34 7q-14 0 -23.5 -5 t-18 -28t-8.5 -64q0 -47 9.5 -59.5t34.5 -12.5q16 0 38 9q7 -14 7 -29q0 -8 -15.5 -14.5t-34.5 -6.5q-48 0 -67 21t-19 93q0 82 26 109.5t66 27.5q16 0 30.5 -5.5t14.5 -10.5z" />
<glyph unicode="&#xaa;" horiz-adv-x="322" d="M52 675q32 35 124 35q106 0 106 -102v-291q-56 -29 -128 -29q-54 0 -83.5 24.5t-29.5 98.5q0 67 28.5 95t80.5 28q30 0 64 -10v57q0 34 -17 46t-46 12q-44 0 -94 -23q-8 11 -10 30.5t5 28.5zM214 468q-24 8 -42 8q-34 0 -50 -12.5t-16 -54.5q0 -63 58 -63q28 0 50 12v110 z" />
<glyph unicode="&#xab;" horiz-adv-x="416" d="M18 252q0 16 36 78t72 116l37 54q14 0 26.5 -10t17.5 -20l5 -11q0 -17 -29.5 -68.5t-58.5 -94.5l-30 -44q120 -167 120 -205q-2 -5 -5.5 -13t-16 -21t-26.5 -13q-148 216 -148 252zM190 251q0 15 36 71.5t72 105.5l36 49q13 0 25 -9.5t17 -19.5l5 -9q0 -16 -28.5 -63 t-56.5 -86l-29 -39q117 -146 117 -182q-2 -5 -6 -12.5t-16 -19.5t-25 -12q-147 191 -147 226z" />
<glyph unicode="&#xac;" horiz-adv-x="400" d="M358 309v-198q-21 -7 -37 -7q-40 0 -40 27v101h-241q-6 20 -6 38q0 39 26 39h298z" />
<glyph unicode="&#xad;" horiz-adv-x="278" d="M37 246q0 43 2.5 57t14.5 14h187q0 -43 -2.5 -57t-13.5 -14h-188z" />
<glyph unicode="&#xae;" horiz-adv-x="472" d="M242 760q101 0 147.5 -49.5t46.5 -167.5q0 -108 -52 -165.5t-150 -57.5q-101 0 -149.5 51t-48.5 170q0 219 206 219zM232 379q64 0 103 40t39 125q0 83 -33 122t-100 39q-144 0 -144 -164q0 -89 33.5 -125.5t101.5 -36.5zM275 529q34 -34 40 -103q0 -10 -16 -10 q-18 0 -25 1q-6 73 -35 100h-11h-14v-92q0 -6 -6 -7t-32 -1v248q0 5 7 5h20h24q81 0 81 -73q0 -47 -33 -68zM214 552q3 0 9 -0.5t7 -0.5q38 0 38 49q0 37 -36 37h-18v-85z" />
<glyph unicode="&#xaf;" horiz-adv-x="267" d="M6 593q-6 17 -6 37q0 40 32 40h228q7 -17 7 -35q0 -19 -8 -30.5t-23 -11.5h-230z" />
<glyph unicode="&#xb0;" horiz-adv-x="358" d="M83 649q0 98 100 98q49 0 71 -21.5t22 -75.5q0 -98 -99 -98q-49 0 -71.5 21t-22.5 76zM138 648q0 -44 40 -44q44 0 44 46q0 44 -38 44q-46 0 -46 -46z" />
<glyph unicode="&#xb1;" horiz-adv-x="419" d="M175 150v139h-140q0 43 2.5 57t14.5 14h123v123q0 12 14 14.5t57 2.5v-140h139q0 -43 -2.5 -57t-13.5 -14h-123v-123q0 -11 -14 -13.5t-57 -2.5zM34 15q0 43 2.5 57t14.5 14h333q0 -43 -2.5 -57t-13.5 -14h-334z" />
<glyph unicode="&#xb2;" horiz-adv-x="384" d="M66 589q-15 28 -15 50q0 27 49.5 49t104.5 22q69 0 97 -27.5t28 -78.5q0 -33 -19 -69t-40 -59t-57.5 -59t-50.5 -51h175q5 -19 5 -36q0 -41 -26 -41h-271q-6 15 -6 27q0 28 13 42q28 33 78 79.5t75 77.5t25 60q0 53 -64 53q-48 0 -101 -39z" />
<glyph unicode="&#xb3;" horiz-adv-x="383" d="M272 516q67 -29 67 -93q0 -71 -48.5 -107.5t-126.5 -36.5q-77 0 -107 26q-13 10 -13 30q0 27 20 44q40 -25 97 -25q43 0 68.5 16t25.5 46q0 46 -57 54q-27 3 -71 3q-9 12 -9 37t26 25q20 0 52 -2q38 27 38 60q0 44 -63 44q-59 0 -104 -33q-15 15 -16.5 37t9.5 31 q44 38 144 38q62 0 91.5 -24.5t29.5 -65.5q0 -59 -53 -104z" />
<glyph unicode="&#xb4;" horiz-adv-x="172" d="M31 570q-8 0 -15.5 11t-11.5 23l-4 11q31 36 79 76.5t55 40.5q13 0 23.5 -20t14.5 -41q-13 -14 -64 -50.5t-77 -50.5z" />
<glyph unicode="&#xb6;" horiz-adv-x="541" d="M352 27q0 -30 -40 -30q-24 0 -42 6v202q-28 -15 -79 -15q-158 0 -158 230q0 149 52.5 219.5t145.5 70.5q67 0 121 -28v-655zM496 26q0 -18 -8.5 -23.5t-34.5 -5.5q-23 0 -39 5v656q0 18 9 25t33 7q20 0 40 -6v-658zM270 630q-20 10 -51 10q-102 0 -102 -212 q0 -172 94 -172q37 0 59 14v360z" />
<glyph unicode="&#xb7;" horiz-adv-x="221" d="M53 269q0 24 15.5 41t40.5 17q56 0 56 -58q0 -25 -15 -41t-41 -16q-56 0 -56 57z" />
<glyph unicode="&#xb8;" horiz-adv-x="136" d="M87 -58q20 0 34.5 -16t14.5 -48q0 -38 -22.5 -61t-57.5 -23q-14 0 -28 3t-21 6l-7 3q6 35 13 41q5 3 9.5 0.5t15 -6.5t19.5 -4q32 0 32 34q0 33 -30 33l-41 -5l19 103h45l-12 -61q1 1 17 1z" />
<glyph unicode="&#xb9;" horiz-adv-x="381" d="M57 599q-10 17 -10 39q0 27 27 38q35 12 83 23t65 11q19 0 25 -3v-341h87q3 -21 3 -36q0 -23 -5.5 -32t-18.5 -9h-264q-5 17 -5 35q0 42 28 42h93v255z" />
<glyph unicode="&#xba;" horiz-adv-x="338" d="M35 499q0 211 139 211q68 0 98.5 -45t30.5 -164q0 -212 -138 -212q-66 0 -98 45.5t-32 164.5zM104 494q0 -80 14.5 -109t47.5 -29q68 0 68 143q0 80 -14 109.5t-46 29.5q-35 0 -52.5 -33t-17.5 -111z" />
<glyph unicode="&#xbb;" horiz-adv-x="414" d="M396 252q0 -16 -36.5 -79t-73.5 -118l-37 -55q-5 1 -13.5 4.5t-22 15.5t-13.5 27q0 16 30 67.5t60 94.5l30 43q-118 169 -118 207q0 12 12 22.5t24 14.5l13 4q145 -213 145 -248zM224 250q0 -16 -37 -73t-74 -106l-37 -49q-5 1 -12.5 4.5t-19.5 15.5t-12 27q0 16 29 61.5 t58 82.5l29 37q2 0 -25.5 38.5t-57.5 86t-30 64.5q0 12 11 22.5t22 14.5l11 4q145 -196 145 -230z" />
<glyph unicode="&#xbf;" horiz-adv-x="306" d="M223 449q0 -24 -15 -41t-41 -17q-56 0 -56 58q0 25 15 41t41 16q56 0 56 -57zM153 -195q-65 0 -102 35.5t-37 103.5q0 54 17.5 95.5t51 84.5t42.5 60q14 27 12 48.5t-6 41.5t0 24q14 16 73 8q4 -8 9 -22t5 -51.5t-17 -69.5q-14 -26 -42.5 -66.5t-42.5 -70t-14 -63.5 q0 -76 81 -76q49 0 83 25q12 -31 12 -65q0 -17 -39.5 -29.5t-85.5 -12.5z" />
<glyph unicode="&#xc0;" horiz-adv-x="437" d="M241 771q-6 0 -67.5 44t-72.5 57q4 22 14.5 42t23.5 20q7 0 62.5 -48t71.5 -70q-13 -45 -32 -45zM431 15q2 -9 -5 -13t-30 -4q-28 0 -48 2l-43 178h-173l-38 -164q-2 -6 -4.5 -9t-10 -5t-23.5 -2q-22 0 -51 3l178 688q3 14 31 14q24 0 38 -3zM150 252h138l-34 142 q-26 108 -35 192q-10 -81 -35 -192z" />
<glyph unicode="&#xc1;" horiz-adv-x="437" d="M202 770q-8 0 -16 11t-12 23l-3 11q31 36 79 76.5t55 40.5q13 0 23.5 -20t14.5 -41q-13 -14 -64 -50.5t-77 -50.5zM431 15q2 -9 -5 -13t-30 -4q-28 0 -48 2l-43 178h-173l-38 -164q-2 -6 -4.5 -9t-10 -5t-23.5 -2q-22 0 -51 3l178 688q3 14 31 14q24 0 38 -3zM150 252 h138l-34 142q-26 108 -35 192q-10 -81 -35 -192z" />
<glyph unicode="&#xc2;" horiz-adv-x="437" d="M145 772q-39 0 -54 23l113 123q8 3 17 3q13 0 25 -12q97 -98 97 -115q0 -11 -17.5 -17t-40.5 -6q-52 52 -65 77q-57 -76 -75 -76zM431 15q2 -9 -5 -13t-30 -4q-28 0 -48 2l-43 178h-173l-38 -164q-2 -6 -4.5 -9t-10 -5t-23.5 -2q-22 0 -51 3l178 688q3 14 31 14 q24 0 38 -3zM150 252h138l-34 142q-26 108 -35 192q-10 -81 -35 -192z" />
<glyph unicode="&#xc3;" horiz-adv-x="437" d="M110 783q-10 0 -19.5 10.5t-14.5 20.5l-5 10q46 75 113 75q22 0 44.5 -23.5t42.5 -23.5t33 9.5t19.5 19t12.5 9.5q8 0 15 -11t11 -23l3 -11q-9 -18 -39.5 -44.5t-69.5 -26.5q-28 0 -49 24t-38 24q-20 0 -37.5 -19.5t-21.5 -19.5zM431 15q2 -9 -5 -13t-30 -4q-28 0 -48 2 l-43 178h-173l-38 -164q-2 -6 -4.5 -9t-10 -5t-23.5 -2q-22 0 -51 3l178 688q3 14 31 14q24 0 38 -3zM150 252h138l-34 142q-26 108 -35 192q-10 -81 -35 -192z" />
<glyph unicode="&#xc4;" horiz-adv-x="437" d="M149 788q-49 0 -49 51q0 21 13.5 36t35.5 15q50 0 50 -51q0 -22 -13.5 -36.5t-36.5 -14.5zM291 788q-48 0 -48 51q0 21 13 36t35 15q50 0 50 -51q0 -22 -13.5 -36.5t-36.5 -14.5zM431 15q2 -9 -5 -13t-30 -4q-28 0 -48 2l-43 178h-173l-38 -164q-2 -6 -4.5 -9t-10 -5 t-23.5 -2q-22 0 -51 3l178 688q3 14 31 14q24 0 38 -3zM150 252h138l-34 142q-26 108 -35 192q-10 -81 -35 -192z" />
<glyph unicode="&#xc5;" horiz-adv-x="437" d="M214 762q-48 0 -71 22t-23 75q0 98 100 98q49 0 71 -21.5t22 -75.5q0 -98 -99 -98zM221 901q-43 0 -43 -43q0 -40 37 -40q41 0 41 42q0 41 -35 41zM431 15q2 -9 -5 -13t-30 -4q-28 0 -48 2l-43 178h-173l-38 -164q-2 -6 -4.5 -9t-10 -5t-23.5 -2q-22 0 -51 3l178 688 q3 14 31 14q24 0 38 -3zM150 252h138l-34 142q-26 108 -35 192q-10 -81 -35 -192z" />
<glyph unicode="&#xc6;" horiz-adv-x="615" d="M420 343v-270h171q0 -52 -2 -62.5t-14 -10.5h-236v178h-164l-69 -164q-6 -16 -38 -16q-23 0 -51 3l293 685q6 14 26 14h24h235q0 -51 -2 -62t-13 -11h-160v-209h151q0 -49 -2.5 -62t-13.5 -13h-135zM206 252h133v362q-35 -120 -75 -223z" />
<glyph unicode="&#xc7;" horiz-adv-x="340" d="M215 77q55 0 92 31q13 -24 13 -49q0 -27 -28.5 -47t-73.5 -24l-9 -47q1 1 17 1q20 0 34.5 -16t14.5 -48q0 -38 -22.5 -61t-57.5 -23q-14 0 -28 3t-21 6l-7 3q6 35 13 41q5 3 9.5 0.5t15 -6.5t19.5 -4q32 0 32 34q0 33 -30 33l-41 -5l16 89q-34 3 -58 18t-44.5 50.5 t-30.5 101.5t-10 163q0 99 12 172t31 114t46.5 66t52.5 32.5t55 7.5q94 0 94 -55q0 -23 -13 -49q-28 25 -65 25q-27 0 -47.5 -12t-40 -43t-30 -95t-10.5 -158q0 -143 25.5 -196t74.5 -53z" />
<glyph unicode="&#xc8;" horiz-adv-x="320" d="M205 771q-6 0 -67.5 44t-72.5 57q4 22 14.5 42t23.5 20q7 0 62.5 -48t71.5 -70q-13 -45 -32 -45zM126 343v-270h171q0 -52 -2 -62.5t-14 -10.5h-237v684q1 16 17 16h240q0 -51 -2 -62t-14 -11h-159v-209h150q0 -49 -2 -62t-13 -13h-135z" />
<glyph unicode="&#xc9;" horiz-adv-x="320" d="M270 932q13 0 23.5 -20t14.5 -41q-13 -14 -64 -50.5t-77 -50.5q-8 0 -15.5 11t-11.5 23l-4 11q31 36 79 76.5t55 40.5zM285 627h-159v-209h150q0 -49 -2 -62t-13 -13h-135v-270h171q0 -52 -2 -62.5t-14 -10.5h-237v684q1 16 17 16h240q0 -51 -2 -62t-14 -11z" />
<glyph unicode="&#xca;" horiz-adv-x="320" d="M211 909q97 -98 97 -115q0 -11 -17.5 -17t-40.5 -6q-52 52 -65 77q-57 -76 -75 -76q-39 0 -54 23l113 123q8 3 17 3q13 0 25 -12zM285 627h-159v-209h150q0 -49 -2 -62t-13 -13h-135v-270h171q0 -52 -2 -62.5t-14 -10.5h-237v684q1 16 17 16h240q0 -51 -2 -62t-14 -11z " />
<glyph unicode="&#xcb;" horiz-adv-x="320" d="M114 788q-49 0 -49 51q0 21 13.5 36t35.5 15q50 0 50 -51q0 -22 -13.5 -36.5t-36.5 -14.5zM256 788q-48 0 -48 51q0 21 13 36t35 15q50 0 50 -51q0 -22 -13.5 -36.5t-36.5 -14.5zM285 627h-159v-209h150q0 -49 -2 -62t-13 -13h-135v-270h171q0 -52 -2 -62.5t-14 -10.5 h-237v684q1 16 17 16h240q0 -51 -2 -62t-14 -11z" />
<glyph unicode="&#xcc;" horiz-adv-x="169" d="M108 771q-6 0 -67.5 44t-72.5 57q4 22 14.5 42t23.5 20q7 0 62.5 -48t71.5 -70q-13 -45 -32 -45zM43 663q0 28 11 32.5t72 4.5v-683q0 -13 -10.5 -15t-72.5 -2v663z" />
<glyph unicode="&#xcd;" horiz-adv-x="169" d="M69 770q-8 0 -15.5 11t-11.5 23l-4 11q31 36 79 76.5t55 40.5q13 0 23.5 -20t14.5 -41q-13 -14 -64 -50.5t-77 -50.5zM43 663q0 28 11 32.5t72 4.5v-683q0 -13 -10.5 -15t-72.5 -2v663z" />
<glyph unicode="&#xce;" horiz-adv-x="169" d="M71 918q7 3 17 3q13 0 25 -12q97 -98 97 -115q0 -11 -17.5 -17t-40.5 -6q-52 52 -65 77q-57 -76 -75 -76q-39 0 -54 23zM43 663q0 28 11 32.5t72 4.5v-683q0 -13 -10.5 -15t-72.5 -2v663z" />
<glyph unicode="&#xcf;" horiz-adv-x="169" d="M-33 839q0 21 13.5 36t35.5 15q50 0 50 -51q0 -22 -13.5 -36.5t-36.5 -14.5q-49 0 -49 51zM110 839q0 21 13 36t35 15q50 0 50 -51q0 -22 -13.5 -36.5t-36.5 -14.5q-48 0 -48 51zM43 663q0 28 11 32.5t72 4.5v-683q0 -13 -10.5 -15t-72.5 -2v663z" />
<glyph unicode="&#xd0;" horiz-adv-x="387" d="M168 700q102 0 149 -67.5t47 -238.5q0 -216 -48.5 -305t-146.5 -89h-125v330h-40q0 44 2.5 58t14.5 14h23v279q0 19 27 19h97zM170 77q22 0 38 11.5t31.5 42.5t23.5 97.5t8 165.5q0 133 -23.5 182t-76.5 49h-46v-223h79q0 -44 -2.5 -58t-13.5 -14h-63v-252z" />
<glyph unicode="&#xd1;" horiz-adv-x="444" d="M121 783q-10 0 -19.5 10.5t-14.5 20.5l-5 10q46 75 113 75q22 0 44.5 -23.5t42.5 -23.5t33 9.5t19.5 19t12.5 9.5q8 0 15 -11t10 -23l4 -11q-9 -18 -39.5 -44.5t-69.5 -26.5q-23 0 -36.5 12t-24.5 24t-26 12q-20 0 -37.5 -19.5t-21.5 -19.5zM320 684q0 12 10.5 14t70.5 2 v-683q0 -17 -17 -17h-61l-114 275q-26 65 -95 283q11 -119 11 -299v-242q0 -13 -10.5 -15t-71.5 -2v684q0 16 17 16h62l112 -270q28 -74 95 -282v3q-9 77 -9 297v236z" />
<glyph unicode="&#xd2;" horiz-adv-x="429" d="M243 771q-6 0 -67.5 44t-72.5 57q4 22 14.5 42t23.5 20q7 0 62.5 -48t71.5 -70q-13 -45 -32 -45zM30 354q0 195 46 275t146 80q98 0 137.5 -76t39.5 -276q0 -202 -44 -284t-144 -82q-68 0 -105.5 30.5t-56.5 109.5t-19 223zM121 334q0 -142 20.5 -201t72.5 -59 q54 0 75.5 63.5t21.5 217.5q0 152 -19.5 211.5t-72.5 59.5t-75.5 -65.5t-22.5 -226.5z" />
<glyph unicode="&#xd3;" horiz-adv-x="429" d="M205 770q-8 0 -15.5 11t-11.5 23l-4 11q31 36 79 76.5t55 40.5q13 0 23.5 -20t14.5 -41q-13 -14 -64 -50.5t-77 -50.5zM30 354q0 195 46 275t146 80q98 0 137.5 -76t39.5 -276q0 -202 -44 -284t-144 -82q-68 0 -105.5 30.5t-56.5 109.5t-19 223zM121 334 q0 -142 20.5 -201t72.5 -59q54 0 75.5 63.5t21.5 217.5q0 152 -19.5 211.5t-72.5 59.5t-75.5 -65.5t-22.5 -226.5z" />
<glyph unicode="&#xd4;" horiz-adv-x="429" d="M207 918q7 3 17 3q13 0 25 -12q97 -98 97 -115q0 -11 -17.5 -17t-40.5 -6q-52 52 -65 77q-57 -76 -75 -76q-39 0 -54 23zM30 354q0 195 46 275t146 80q98 0 137.5 -76t39.5 -276q0 -202 -44 -284t-144 -82q-68 0 -105.5 30.5t-56.5 109.5t-19 223zM121 334 q0 -142 20.5 -201t72.5 -59q54 0 75.5 63.5t21.5 217.5q0 152 -19.5 211.5t-72.5 59.5t-75.5 -65.5t-22.5 -226.5z" />
<glyph unicode="&#xd5;" horiz-adv-x="429" d="M74 824q46 75 113 75q22 0 44.5 -23.5t42.5 -23.5t33 9.5t19.5 19t12.5 9.5q8 0 15 -11t10 -23l4 -11q-9 -18 -39.5 -44.5t-69.5 -26.5q-23 0 -36.5 12t-24.5 24t-26 12q-20 0 -37.5 -19.5t-21.5 -19.5q-10 0 -19.5 10.5t-14.5 20.5zM30 354q0 195 46 275t146 80 q98 0 137.5 -76t39.5 -276q0 -202 -44 -284t-144 -82q-68 0 -105.5 30.5t-56.5 109.5t-19 223zM121 334q0 -142 20.5 -201t72.5 -59q54 0 75.5 63.5t21.5 217.5q0 152 -19.5 211.5t-72.5 59.5t-75.5 -65.5t-22.5 -226.5z" />
<glyph unicode="&#xd6;" horiz-adv-x="429" d="M103 839q0 21 13.5 36t35.5 15q50 0 50 -51q0 -22 -13.5 -36.5t-36.5 -14.5q-49 0 -49 51zM246 839q0 21 13 36t35 15q50 0 50 -51q0 -22 -13.5 -36.5t-36.5 -14.5q-48 0 -48 51zM30 354q0 195 46 275t146 80q98 0 137.5 -76t39.5 -276q0 -202 -44 -284t-144 -82 q-68 0 -105.5 30.5t-56.5 109.5t-19 223zM121 334q0 -142 20.5 -201t72.5 -59q54 0 75.5 63.5t21.5 217.5q0 152 -19.5 211.5t-72.5 59.5t-75.5 -65.5t-22.5 -226.5z" />
<glyph unicode="&#xd7;" d="M346 381l-89 -99l89 -99q-31 -30 -42.5 -38.5t-19.5 -0.5l-76 84l-75 -84q-8 -7 -19 0t-37 33l-6 6l89 99l-89 99q41 40 51 42q6 1 11 -4l75 -83l76 83q8 8 19.5 0t42.5 -38z" />
<glyph unicode="&#xd8;" horiz-adv-x="435" d="M415 694q1 -9 -34 -111q21 -76 21 -226q0 -203 -44 -285t-144 -82q-80 0 -120 45q-4 -11 -8.5 -22t-8.5 -19.5t-4 -9.5q-14 0 -31 7t-19 18q-1 6 36 95q-26 81 -26 250q0 195 45 275.5t144 80.5q80 0 119 -46q18 48 22 55q48 -5 52 -25zM222 627q-52 0 -74.5 -66 t-22.5 -227q0 -109 7 -156l148 420q-20 29 -58 29zM211 74q36 0 56.5 19.5t33.5 82.5t13 179q0 107 -8 160q-25 -73 -82 -232t-66 -185q18 -24 53 -24z" />
<glyph unicode="&#xd9;" horiz-adv-x="437" d="M243 771q-6 0 -67.5 44t-72.5 57q4 22 14.5 42t23.5 20q7 0 62.5 -48t71.5 -70q-13 -45 -32 -45zM127 202q0 -69 19 -103t77 -34q54 0 88 18v600q0 13 10.5 15t71.5 2v-674q-21 -14 -68 -25t-102 -11q-47 0 -80.5 11.5t-52.5 30t-30 47.5t-14 57.5t-3 67.5v479 q0 13 10.5 15t73.5 2v-498z" />
<glyph unicode="&#xda;" horiz-adv-x="437" d="M205 770q-8 0 -15.5 11t-11.5 23l-4 11q31 36 79 76.5t55 40.5q13 0 23.5 -20t14.5 -41q-13 -14 -64 -50.5t-77 -50.5zM127 202q0 -69 19 -103t77 -34q54 0 88 18v600q0 13 10.5 15t71.5 2v-674q-21 -14 -68 -25t-102 -11q-47 0 -80.5 11.5t-52.5 30t-30 47.5t-14 57.5 t-3 67.5v479q0 13 10.5 15t73.5 2v-498z" />
<glyph unicode="&#xdb;" horiz-adv-x="437" d="M207 918q7 3 17 3q13 0 25 -12q97 -98 97 -115q0 -11 -17.5 -17t-40.5 -6q-52 52 -65 77q-57 -76 -75 -76q-39 0 -54 23zM127 202q0 -69 19 -103t77 -34q54 0 88 18v600q0 13 10.5 15t71.5 2v-674q-21 -14 -68 -25t-102 -11q-47 0 -80.5 11.5t-52.5 30t-30 47.5t-14 57.5 t-3 67.5v479q0 13 10.5 15t73.5 2v-498z" />
<glyph unicode="&#xdc;" horiz-adv-x="437" d="M103 839q0 21 13.5 36t35.5 15q50 0 50 -51q0 -22 -13.5 -36.5t-36.5 -14.5q-49 0 -49 51zM246 839q0 21 13 36t35 15q50 0 50 -51q0 -22 -13.5 -36.5t-36.5 -14.5q-48 0 -48 51zM127 202q0 -69 19 -103t77 -34q54 0 88 18v600q0 13 10.5 15t71.5 2v-674q-21 -14 -68 -25 t-102 -11q-47 0 -80.5 11.5t-52.5 30t-30 47.5t-14 57.5t-3 67.5v479q0 13 10.5 15t73.5 2v-498z" />
<glyph unicode="&#xdd;" horiz-adv-x="364" d="M171 770q-8 0 -15.5 11t-11.5 23l-4 11q31 36 79 76.5t55 40.5q13 0 23.5 -20t14.5 -41q-13 -14 -64 -50.5t-77 -50.5zM225 288v-271q0 -13 -10 -15t-71 -2v284l-138 403q-3 9 7 11q11 2 85 2l40 -137q15 -48 31 -117.5t18 -91.5q2 21 19 90.5t31 118.5l35 122 q4 11 15 13t73 2z" />
<glyph unicode="&#xde;" horiz-adv-x="360" d="M159 575q95 0 139.5 -47t44.5 -150q0 -116 -50.5 -167.5t-132.5 -51.5h-35v-142q0 -13 -11.5 -15t-70.5 -2v680q0 13 10.5 16.5t45.5 3.5h26v-125h34zM168 234q43 0 64 35.5t21 117.5q0 117 -79 117q-12 0 -23 -0.5t-18 -1t-8 -0.5v-265q21 -3 43 -3z" />
<glyph unicode="&#xdf;" horiz-adv-x="465" d="M47 550q0 79 42.5 117t118.5 38q102 0 151.5 -42.5t49.5 -101.5q0 -31 -17 -54t-37.5 -35t-37.5 -30t-17 -39q0 -17 16 -37.5t39 -42t46 -46.5t39 -61.5t16 -77.5q0 -68 -40 -107.5t-110 -39.5q-55 0 -87 14.5t-32 30.5q0 32 21 55q27 -27 80 -27q36 0 56.5 19t20.5 55 q0 28 -16 56t-38.5 51.5t-45 46.5t-38.5 51t-16 56q0 30 17.5 54.5t38 37.5t38 31t17.5 38q0 28 -28 48.5t-80 20.5q-48 0 -66.5 -28.5t-18.5 -96.5l3 -460q0 -30 -9.5 -41.5t-38.5 -11.5q-14 0 -25.5 2.5t-15.5 5.5l-4 3q11 27 11 72z" />
<glyph unicode="&#xe0;" horiz-adv-x="354" d="M201 571q-6 0 -67.5 44t-72.5 57q4 22 14.5 42t23.5 20q7 0 62.5 -48t71.5 -70q-13 -45 -32 -45zM30 455q0 21 11 28q15 10 57.5 18.5t94.5 8.5q66 0 95 -28t29 -94v-53q0 -220 -6 -311q-57 -34 -139 -34q-32 0 -54 4.5t-44 19t-33.5 47t-11.5 81.5q0 95 36.5 129.5 t96.5 34.5q47 0 73 -13v79q0 34 -15 46.5t-47 12.5q-79 0 -132 -22q-11 20 -11 46zM235 236q-20 9 -47 9q-35 0 -54.5 -20.5t-19.5 -80.5q0 -51 16 -68.5t49 -17.5q36 0 53 17q3 33 3 161z" />
<glyph unicode="&#xe1;" horiz-adv-x="354" d="M162 570q-8 0 -16 11t-12 23l-3 11q31 36 79 76.5t55 40.5q13 0 23.5 -20t14.5 -41q-13 -14 -64 -50.5t-77 -50.5zM30 455q0 21 11 28q15 10 57.5 18.5t94.5 8.5q66 0 95 -28t29 -94v-53q0 -220 -6 -311q-57 -34 -139 -34q-32 0 -54 4.5t-44 19t-33.5 47t-11.5 81.5 q0 95 36.5 129.5t96.5 34.5q47 0 73 -13v79q0 34 -15 46.5t-47 12.5q-79 0 -132 -22q-11 20 -11 46zM235 236q-20 9 -47 9q-35 0 -54.5 -20.5t-19.5 -80.5q0 -51 16 -68.5t49 -17.5q36 0 53 17q3 33 3 161z" />
<glyph unicode="&#xe2;" horiz-adv-x="354" d="M164 718q8 3 17 3q13 0 25 -12q97 -98 97 -115q0 -11 -17.5 -17t-40.5 -6q-52 52 -65 77q-57 -76 -75 -76q-39 0 -54 23zM30 455q0 21 11 28q15 10 57.5 18.5t94.5 8.5q66 0 95 -28t29 -94v-53q0 -220 -6 -311q-57 -34 -139 -34q-32 0 -54 4.5t-44 19t-33.5 47 t-11.5 81.5q0 95 36.5 129.5t96.5 34.5q47 0 73 -13v79q0 34 -15 46.5t-47 12.5q-79 0 -132 -22q-11 20 -11 46zM235 236q-20 9 -47 9q-35 0 -54.5 -20.5t-19.5 -80.5q0 -51 16 -68.5t49 -17.5q36 0 53 17q3 33 3 161z" />
<glyph unicode="&#xe3;" horiz-adv-x="354" d="M31 624q46 75 113 75q22 0 44.5 -23.5t42.5 -23.5t33 9.5t19.5 19t12.5 9.5q8 0 15 -11t11 -23l3 -11q-9 -18 -39.5 -44.5t-69.5 -26.5q-28 0 -49 24t-38 24q-20 0 -37.5 -19.5t-21.5 -19.5q-10 0 -19.5 10.5t-14.5 20.5zM30 455q0 21 11 28q15 10 57.5 18.5t94.5 8.5 q66 0 95 -28t29 -94v-53q0 -220 -6 -311q-57 -34 -139 -34q-32 0 -54 4.5t-44 19t-33.5 47t-11.5 81.5q0 95 36.5 129.5t96.5 34.5q47 0 73 -13v79q0 34 -15 46.5t-47 12.5q-79 0 -132 -22q-11 20 -11 46zM235 236q-20 9 -47 9q-35 0 -54.5 -20.5t-19.5 -80.5 q0 -51 16 -68.5t49 -17.5q36 0 53 17q3 33 3 161z" />
<glyph unicode="&#xe4;" horiz-adv-x="354" d="M60 639q0 21 13.5 36t35.5 15q50 0 50 -51q0 -22 -13.5 -36.5t-36.5 -14.5q-49 0 -49 51zM203 639q0 21 13 36t35 15q50 0 50 -51q0 -22 -13.5 -36.5t-36.5 -14.5q-48 0 -48 51zM30 455q0 21 11 28q15 10 57.5 18.5t94.5 8.5q66 0 95 -28t29 -94v-53q0 -220 -6 -311 q-57 -34 -139 -34q-32 0 -54 4.5t-44 19t-33.5 47t-11.5 81.5q0 95 36.5 129.5t96.5 34.5q47 0 73 -13v79q0 34 -15 46.5t-47 12.5q-79 0 -132 -22q-11 20 -11 46zM235 236q-20 9 -47 9q-35 0 -54.5 -20.5t-19.5 -80.5q0 -51 16 -68.5t49 -17.5q36 0 53 17q3 33 3 161z" />
<glyph unicode="&#xe5;" horiz-adv-x="354" d="M80 659q0 98 100 98q49 0 71 -21.5t22 -75.5q0 -98 -99 -98q-48 0 -71 22t-23 75zM138 658q0 -40 37 -40q41 0 41 42q0 41 -35 41q-43 0 -43 -43zM30 455q0 21 11 28q15 10 57.5 18.5t94.5 8.5q66 0 95 -28t29 -94v-53q0 -220 -6 -311q-57 -34 -139 -34q-32 0 -54 4.5 t-44 19t-33.5 47t-11.5 81.5q0 95 36.5 129.5t96.5 34.5q47 0 73 -13v79q0 34 -15 46.5t-47 12.5q-79 0 -132 -22q-11 20 -11 46zM235 236q-20 9 -47 9q-35 0 -54.5 -20.5t-19.5 -80.5q0 -51 16 -68.5t49 -17.5q36 0 53 17q3 33 3 161z" />
<glyph unicode="&#xe6;" horiz-adv-x="582" d="M409 70q68 0 122 31q7 -22 7 -73q0 -7 -18.5 -15.5t-51.5 -15t-68 -6.5q-68 0 -98 29q-51 -29 -130 -29q-33 0 -54 4t-44 18.5t-34 48.5t-11 87q0 170 130 170q50 0 76 -13v72q0 59 -68 59q-77 0 -125 -27q-11 19 -11 49q0 15 11 24q40 27 155 27q80 0 98 -56 q36 56 122 56q127 0 127 -159q0 -83 -11 -132q-104 -14 -209 6q0 -68 10 -102.5t26.5 -43.5t48.5 -9zM408 439q-71 0 -82 -149q80 -18 134 -10q5 23 5 62q-1 55 -13 76t-44 21zM235 74v176q-22 8 -47 8q-74 0 -74 -109q0 -57 15.5 -74t48.5 -17q44 0 57 16z" />
<glyph unicode="&#xe7;" horiz-adv-x="312" d="M204 62q47 0 79 24q8 -24 8 -45q0 -18 -24.5 -32t-63.5 -18l-10 -50q1 1 17 1q20 0 34.5 -16t14.5 -48q0 -38 -22.5 -61t-57.5 -23q-14 0 -28 3t-21 6l-7 3q6 35 13 41q5 3 9.5 0.5t15 -6.5t19.5 -4q32 0 32 34q0 33 -30 33l-41 -5l17 92q-44 3 -70 23.5t-41.5 75 t-15.5 149.5q0 69 11 120t28 79.5t42 45t47.5 21.5t50.5 5q35 0 59 -13t24 -32q0 -22 -8 -45q-32 18 -71 18q-20 0 -35 -6.5t-31 -25.5t-24.5 -61.5t-8.5 -105.5q0 -102 21 -139.5t68 -37.5z" />
<glyph unicode="&#xe8;" horiz-adv-x="360" d="M220 571q-6 0 -67.5 44t-72.5 57q4 22 14.5 42t23.5 20q7 0 62.5 -48t71.5 -70q-13 -45 -32 -45zM207 69q59 0 113 31q8 -20 8 -55q0 -23 -41 -39t-98 -16q-38 0 -65 9.5t-49.5 34t-34 72t-11.5 118.5q0 90 14.5 149.5t42 88t55.5 38.5t66 10q127 0 127 -161 q0 -82 -12 -130q-66 -13 -208 -16q2 -77 23.5 -105.5t69.5 -28.5zM197 439q-75 0 -83 -170q99 0 136 11q5 23 5 60q-1 55 -13.5 77t-44.5 22z" />
<glyph unicode="&#xe9;" horiz-adv-x="360" d="M182 570q-8 0 -16 11t-12 23l-3 11q31 36 79 76.5t55 40.5q13 0 23.5 -20t14.5 -41q-13 -14 -64 -50.5t-77 -50.5zM207 69q59 0 113 31q8 -20 8 -55q0 -23 -41 -39t-98 -16q-38 0 -65 9.5t-49.5 34t-34 72t-11.5 118.5q0 90 14.5 149.5t42 88t55.5 38.5t66 10 q127 0 127 -161q0 -82 -12 -130q-66 -13 -208 -16q2 -77 23.5 -105.5t69.5 -28.5zM197 439q-75 0 -83 -170q99 0 136 11q5 23 5 60q-1 55 -13.5 77t-44.5 22z" />
<glyph unicode="&#xea;" horiz-adv-x="360" d="M125 572q-39 0 -54 23l113 123q8 3 17 3q13 0 25 -12q97 -98 97 -115q0 -11 -17.5 -17t-40.5 -6q-52 52 -65 77q-57 -76 -75 -76zM207 69q59 0 113 31q8 -20 8 -55q0 -23 -41 -39t-98 -16q-38 0 -65 9.5t-49.5 34t-34 72t-11.5 118.5q0 90 14.5 149.5t42 88t55.5 38.5 t66 10q127 0 127 -161q0 -82 -12 -130q-66 -13 -208 -16q2 -77 23.5 -105.5t69.5 -28.5zM197 439q-75 0 -83 -170q99 0 136 11q5 23 5 60q-1 55 -13.5 77t-44.5 22z" />
<glyph unicode="&#xeb;" horiz-adv-x="360" d="M129 588q-49 0 -49 51q0 21 13.5 36t35.5 15q50 0 50 -51q0 -22 -13.5 -36.5t-36.5 -14.5zM271 588q-48 0 -48 51q0 21 13 36t35 15q50 0 50 -51q0 -22 -13.5 -36.5t-36.5 -14.5zM207 69q59 0 113 31q8 -20 8 -55q0 -23 -41 -39t-98 -16q-38 0 -65 9.5t-49.5 34t-34 72 t-11.5 118.5q0 90 14.5 149.5t42 88t55.5 38.5t66 10q127 0 127 -161q0 -82 -12 -130q-66 -13 -208 -16q2 -77 23.5 -105.5t69.5 -28.5zM197 439q-75 0 -83 -170q99 0 136 11q5 23 5 60q-1 55 -13.5 77t-44.5 22z" />
<glyph unicode="&#xec;" horiz-adv-x="175" d="M111 571q-6 0 -67.5 44t-72.5 57q4 22 14.5 42t23.5 20q7 0 62.5 -48t71.5 -70q-13 -45 -32 -45zM129 17q0 -13 -10.5 -15t-72.5 -2v463q0 26 14.5 31.5t68.5 5.5v-483z" />
<glyph unicode="&#xed;" horiz-adv-x="175" d="M73 570q-8 0 -15.5 11t-11.5 23l-4 11q31 36 79 76.5t55 40.5q13 0 23.5 -20t14.5 -41q-13 -14 -64 -50.5t-77 -50.5zM129 17q0 -13 -10.5 -15t-72.5 -2v463q0 26 14.5 31.5t68.5 5.5v-483z" />
<glyph unicode="&#xee;" horiz-adv-x="175" d="M75 718q7 3 17 3q13 0 25 -12q97 -98 97 -115q0 -11 -17.5 -17t-40.5 -6q-52 52 -65 77q-57 -76 -75 -76q-39 0 -54 23zM129 17q0 -13 -10.5 -15t-72.5 -2v463q0 26 14.5 31.5t68.5 5.5v-483z" />
<glyph unicode="&#xef;" horiz-adv-x="175" d="M-29 639q0 21 13.5 36t35.5 15q50 0 50 -51q0 -22 -13.5 -36.5t-36.5 -14.5q-49 0 -49 51zM114 639q0 21 13 36t35 15q50 0 50 -51q0 -22 -13.5 -36.5t-36.5 -14.5q-48 0 -48 51zM129 17q0 -13 -10.5 -15t-72.5 -2v463q0 26 14.5 31.5t68.5 5.5v-483z" />
<glyph unicode="&#xf0;" horiz-adv-x="408" d="M301 632q79 -129 79 -343q0 -67 -7 -116t-24.5 -93t-52.5 -67t-87 -23q-93 0 -136.5 61.5t-43.5 205.5q0 121 43 186.5t117 65.5q56 0 88 -29q-18 68 -54 121l-94 -37q-8 21 -12 31t-6 20t-0.5 14.5t7.5 7.5l58 22q-19 20 -52 48q21 37 59 37q19 0 31 -12q20 -17 43 -42 l68 27q8 -21 12 -31t6 -20t0.5 -14.5t-7.5 -6.5zM207 58q30 0 48.5 17t27.5 52t11.5 70t2.5 89q0 60 -4 101q-31 50 -82 50q-48 0 -73 -53.5t-25 -139.5q0 -186 94 -186z" />
<glyph unicode="&#xf1;" horiz-adv-x="382" d="M51 624q46 75 113 75q22 0 44.5 -23.5t42.5 -23.5t33 9.5t19.5 19t12.5 9.5q8 0 15 -11t11 -23l3 -11q-9 -18 -39.5 -44.5t-69.5 -26.5q-28 0 -49 24t-38 24q-20 0 -37.5 -19.5t-21.5 -19.5q-10 0 -19.5 10.5t-14.5 20.5zM45 476q78 34 158 34q78 0 109.5 -30.5 t31.5 -103.5v-359q0 -13 -11 -15t-73 -2v352q0 49 -11.5 68t-47.5 19q-42 0 -75 -18v-404q0 -13 -10.5 -15t-70.5 -2v476z" />
<glyph unicode="&#xf2;" horiz-adv-x="376" d="M214 571q-6 0 -67.5 44t-72.5 57q4 22 14.5 42t23.5 20q7 0 62.5 -48t71.5 -70q-13 -45 -32 -45zM27 250q0 260 166 260q83 0 119.5 -55t36.5 -202q0 -137 -41.5 -200t-123.5 -63q-42 0 -68.5 9t-48 36t-31 79.5t-9.5 135.5zM115 248q0 -115 16.5 -152t54.5 -37 q36 0 55 42t19 151q0 113 -15.5 150t-54.5 37q-37 0 -56 -41t-19 -150z" />
<glyph unicode="&#xf3;" horiz-adv-x="376" d="M175 570q-8 0 -15.5 11t-11.5 23l-4 11q31 36 79 76.5t55 40.5q13 0 23.5 -20t14.5 -41q-13 -14 -64 -50.5t-77 -50.5zM27 250q0 260 166 260q83 0 119.5 -55t36.5 -202q0 -137 -41.5 -200t-123.5 -63q-42 0 -68.5 9t-48 36t-31 79.5t-9.5 135.5zM115 248 q0 -115 16.5 -152t54.5 -37q36 0 55 42t19 151q0 113 -15.5 150t-54.5 37q-37 0 -56 -41t-19 -150z" />
<glyph unicode="&#xf4;" horiz-adv-x="376" d="M177 718q7 3 17 3q13 0 25 -12q97 -98 97 -115q0 -11 -17.5 -17t-40.5 -6q-52 52 -65 77q-57 -76 -75 -76q-39 0 -54 23zM27 250q0 260 166 260q83 0 119.5 -55t36.5 -202q0 -137 -41.5 -200t-123.5 -63q-42 0 -68.5 9t-48 36t-31 79.5t-9.5 135.5zM115 248 q0 -115 16.5 -152t54.5 -37q36 0 55 42t19 151q0 113 -15.5 150t-54.5 37q-37 0 -56 -41t-19 -150z" />
<glyph unicode="&#xf5;" horiz-adv-x="376" d="M44 624q46 75 113 75q22 0 44.5 -23.5t42.5 -23.5t33 9.5t19.5 19t12.5 9.5q8 0 15 -11t10 -23l4 -11q-9 -18 -39.5 -44.5t-69.5 -26.5q-23 0 -36.5 12t-24.5 24t-26 12q-20 0 -37.5 -19.5t-21.5 -19.5q-10 0 -19.5 10.5t-14.5 20.5zM27 250q0 260 166 260 q83 0 119.5 -55t36.5 -202q0 -137 -41.5 -200t-123.5 -63q-42 0 -68.5 9t-48 36t-31 79.5t-9.5 135.5zM115 248q0 -115 16.5 -152t54.5 -37q36 0 55 42t19 151q0 113 -15.5 150t-54.5 37q-37 0 -56 -41t-19 -150z" />
<glyph unicode="&#xf6;" horiz-adv-x="376" d="M73 639q0 21 13.5 36t35.5 15q50 0 50 -51q0 -22 -13.5 -36.5t-36.5 -14.5q-49 0 -49 51zM216 639q0 21 13 36t35 15q50 0 50 -51q0 -22 -13.5 -36.5t-36.5 -14.5q-48 0 -48 51zM27 250q0 260 166 260q83 0 119.5 -55t36.5 -202q0 -137 -41.5 -200t-123.5 -63 q-42 0 -68.5 9t-48 36t-31 79.5t-9.5 135.5zM115 248q0 -115 16.5 -152t54.5 -37q36 0 55 42t19 151q0 113 -15.5 150t-54.5 37q-37 0 -56 -41t-19 -150z" />
<glyph unicode="&#xf7;" d="M158 427q0 22 13.5 37t35.5 15q51 0 51 -52q0 -22 -14 -36.5t-37 -14.5q-49 0 -49 51zM34 246q0 43 2.5 57t14.5 14h333q0 -43 -2.5 -57t-13.5 -14h-334zM158 132q0 21 13.5 36t35.5 15q51 0 51 -51q0 -22 -14 -37t-37 -15q-49 0 -49 52z" />
<glyph unicode="&#xf8;" horiz-adv-x="412" d="M403 489q0 -7 -47 -94q13 -52 13 -142q0 -137 -40.5 -200t-121.5 -63q-80 0 -114 39q-6 -11 -13 -23.5t-12 -21t-6 -10.5q-16 3 -30.5 12.5t-14.5 21.5q0 6 46 84q-16 61 -16 158q0 260 166 260q75 0 110 -42q28 47 34 54q46 -13 46 -33zM211 439q-37 0 -56 -40.5 t-19 -150.5q0 -50 2 -70l126 225q-14 36 -53 36zM207 59q36 0 55 42t19 151q0 43 -3 76q-62 -114 -128 -227q14 -42 57 -42z" />
<glyph unicode="&#xf9;" horiz-adv-x="388" d="M219 571q-6 0 -67.5 44t-72.5 57q4 22 14.5 42t23.5 20q7 0 62.5 -48t71.5 -70q-13 -45 -32 -45zM343 26q-65 -36 -149 -36q-86 0 -118 39t-32 127v328q0 12 10.5 14t73.5 2v-351q0 -50 13.5 -69t53.5 -19t67 18v405q0 12 10.5 14t70.5 2v-474z" />
<glyph unicode="&#xfa;" horiz-adv-x="388" d="M181 570q-8 0 -15.5 11t-11.5 23l-4 11q31 36 79 76.5t55 40.5q13 0 23.5 -20t14.5 -41q-13 -14 -64 -50.5t-77 -50.5zM343 26q-65 -36 -149 -36q-86 0 -118 39t-32 127v328q0 12 10.5 14t73.5 2v-351q0 -50 13.5 -69t53.5 -19t67 18v405q0 12 10.5 14t70.5 2v-474z" />
<glyph unicode="&#xfb;" horiz-adv-x="388" d="M183 718q8 3 17 3q13 0 25 -12q97 -98 97 -115q0 -11 -17.5 -17t-40.5 -6q-52 52 -65 77q-57 -76 -75 -76q-39 0 -54 23zM343 26q-65 -36 -149 -36q-86 0 -118 39t-32 127v328q0 12 10.5 14t73.5 2v-351q0 -50 13.5 -69t53.5 -19t67 18v405q0 12 10.5 14t70.5 2v-474z " />
<glyph unicode="&#xfc;" horiz-adv-x="388" d="M79 639q0 21 13.5 36t35.5 15q50 0 50 -51q0 -22 -13.5 -36.5t-36.5 -14.5q-49 0 -49 51zM222 639q0 21 13 36t35 15q50 0 50 -51q0 -22 -13.5 -36.5t-36.5 -14.5q-48 0 -48 51zM343 26q-65 -36 -149 -36q-86 0 -118 39t-32 127v328q0 12 10.5 14t73.5 2v-351 q0 -50 13.5 -69t53.5 -19t67 18v405q0 12 10.5 14t70.5 2v-474z" />
<glyph unicode="&#xfd;" horiz-adv-x="356" d="M168 570q-8 0 -16 11t-12 23l-3 11q31 36 79 76.5t55 40.5q13 0 23.5 -20t14.5 -41q-13 -14 -64 -50.5t-77 -50.5zM24 478q-4 16 5.5 19t73.5 3l54 -238q7 -36 14 -80.5t10 -71.5l3 -26q10 97 24 179l44 213q3 18 14.5 21t73.5 3l-123 -527q-22 -94 -53 -130t-86 -36 q-82 0 -82 39q0 30 12 46q23 -16 63 -16q53 0 73 108z" />
<glyph unicode="&#xfe;" horiz-adv-x="383" d="M192 509q81 0 122 -46t41 -163q0 -76 -10.5 -134t-26 -90.5t-37 -53t-40 -26.5t-38.5 -6q-48 0 -76 26v-210q-19 -6 -48 -6q-21 0 -27 6.5t-6 27.5v636v228q0 26 14 31.5t67 5.5v-233q29 7 65 7zM178 60q11 0 21 4.5t22.5 19t22 38.5t15.5 68t6 103q0 61 -9.5 93.5 t-25 42t-43.5 9.5q-33 0 -60 -21v-329q15 -28 51 -28z" />
<glyph unicode="&#xff;" horiz-adv-x="356" d="M66 639q0 21 13.5 36t35.5 15q50 0 50 -51q0 -22 -13.5 -36.5t-36.5 -14.5q-49 0 -49 51zM209 639q0 21 13 36t35 15q50 0 50 -51q0 -22 -13.5 -36.5t-36.5 -14.5q-48 0 -48 51zM24 478q-4 16 5.5 19t73.5 3l54 -238q7 -36 14 -80.5t10 -71.5l3 -26q10 97 24 179l44 213 q3 18 14.5 21t73.5 3l-123 -527q-22 -94 -53 -130t-86 -36q-82 0 -82 39q0 30 12 46q23 -16 63 -16q53 0 73 108z" />
<glyph unicode="&#x152;" horiz-adv-x="591" d="M396 343v-270h171q0 -52 -2 -62.5t-13 -10.5h-224v40q-42 -49 -121 -49q-67 0 -105 31.5t-56.5 110t-18.5 220.5q0 194 45 275t144 81q74 0 112 -41v16q1 16 17 16h226q0 -51 -2 -62t-13 -11h-160v-209h151q0 -49 -2 -62t-13 -13h-136zM211 71q53 0 73 64t20 220 t-18 216.5t-71 60.5q-52 0 -74.5 -68.5t-22.5 -229.5q0 -142 20.5 -202.5t72.5 -60.5z" />
<glyph unicode="&#x153;" horiz-adv-x="602" d="M439 69q67 0 121 31q8 -20 8 -72q0 -7 -18.5 -16t-51.5 -15.5t-68 -6.5q-91 0 -125 54q-39 -54 -115 -54q-58 0 -89.5 17.5t-50.5 75.5t-19 167q0 259 165 259q85 0 120 -56q40 57 131 57q127 0 127 -159q0 -84 -12 -132q-66 -13 -208 -16q2 -84 21 -109t64 -25zM190 59 q36 0 55 42t19 151q0 113 -16 150t-54 37q-37 0 -56 -41t-19 -150q0 -80 9 -122.5t23 -54.5t39 -12zM438 439q-77 0 -84 -170q99 0 136 11q5 23 5 62q-1 55 -13 76t-44 21z" />
<glyph unicode="&#x178;" horiz-adv-x="364" d="M117 788q-49 0 -49 51q0 21 13.5 36t35.5 15q50 0 50 -51q0 -22 -13.5 -36.5t-36.5 -14.5zM259 788q-48 0 -48 51q0 21 13 36t35 15q50 0 50 -51q0 -22 -13.5 -36.5t-36.5 -14.5zM225 288v-271q0 -13 -10 -15t-71 -2v284l-138 403q-3 9 7 11q11 2 85 2l40 -137 q15 -48 31 -117.5t18 -91.5q2 21 19 90.5t31 118.5l35 122q4 11 15 13t73 2z" />
<glyph unicode="&#x2c6;" horiz-adv-x="252" d="M113 718q8 3 17 3q13 0 25 -12q97 -98 97 -115q0 -11 -17.5 -17t-40.5 -6q-52 52 -65 77q-57 -76 -75 -76q-39 0 -54 23z" />
<glyph unicode="&#x2dc;" horiz-adv-x="294" d="M0 624q46 75 113 75q22 0 44.5 -23.5t42.5 -23.5t33 9.5t19.5 19t12.5 9.5q8 0 15 -11t10 -23l4 -11q-9 -18 -39.5 -44.5t-69.5 -26.5q-29 0 -49.5 24t-37.5 24q-20 0 -37.5 -19.5t-21.5 -19.5q-10 0 -19.5 10.5t-14.5 20.5z" />
<glyph unicode="&#x2000;" horiz-adv-x="478" />
<glyph unicode="&#x2001;" horiz-adv-x="957" />
<glyph unicode="&#x2002;" horiz-adv-x="478" />
<glyph unicode="&#x2003;" horiz-adv-x="957" />
<glyph unicode="&#x2004;" horiz-adv-x="319" />
<glyph unicode="&#x2005;" horiz-adv-x="239" />
<glyph unicode="&#x2006;" horiz-adv-x="159" />
<glyph unicode="&#x2007;" horiz-adv-x="159" />
<glyph unicode="&#x2008;" horiz-adv-x="119" />
<glyph unicode="&#x2009;" horiz-adv-x="191" />
<glyph unicode="&#x200a;" horiz-adv-x="53" />
<glyph unicode="&#x2010;" horiz-adv-x="278" d="M37 246q0 43 2.5 57t14.5 14h187q0 -43 -2.5 -57t-13.5 -14h-188z" />
<glyph unicode="&#x2011;" horiz-adv-x="278" d="M37 246q0 43 2.5 57t14.5 14h187q0 -43 -2.5 -57t-13.5 -14h-188z" />
<glyph unicode="&#x2012;" horiz-adv-x="278" d="M37 246q0 43 2.5 57t14.5 14h187q0 -43 -2.5 -57t-13.5 -14h-188z" />
<glyph unicode="&#x2013;" horiz-adv-x="424" d="M37 246q0 43 2.5 57t14.5 14h333q0 -43 -2.5 -57t-13.5 -14h-334z" />
<glyph unicode="&#x2014;" horiz-adv-x="700" d="M6 246q0 43 2.5 57t14.5 14h671q0 -43 -2.5 -57t-13.5 -14h-672z" />
<glyph unicode="&#x2018;" horiz-adv-x="175" d="M139 627q0 -22 -14.5 -37t-36.5 -15q-54 0 -54 59q0 50 29 105.5t46 55.5q25 0 32 -23q-21 -39 -25 -96q23 -14 23 -49z" />
<glyph unicode="&#x2019;" horiz-adv-x="175" d="M36 740q0 23 14 37.5t36 14.5q55 0 55 -59q0 -50 -29 -105.5t-46 -55.5q-27 0 -32 23q21 39 25 96q-23 14 -23 49z" />
<glyph unicode="&#x201a;" horiz-adv-x="171" d="M36 54q0 22 14 37t36 15q55 0 55 -59q0 -51 -29 -106t-46 -55q-27 0 -32 23q21 38 25 96q-23 14 -23 49z" />
<glyph unicode="&#x201c;" horiz-adv-x="325" d="M139 627q0 -22 -14.5 -37t-36.5 -15q-54 0 -54 59q0 50 29 105.5t46 55.5q25 0 32 -23q-21 -39 -25 -96q23 -14 23 -49zM290 627q0 -22 -14.5 -37t-36.5 -15q-55 0 -55 59q0 50 29.5 105.5t45.5 55.5q27 0 32 -23q-21 -39 -25 -96q24 -14 24 -49z" />
<glyph unicode="&#x201d;" horiz-adv-x="325" d="M36 740q0 23 14 37.5t36 14.5q55 0 55 -59q0 -50 -29 -105.5t-46 -55.5q-27 0 -32 23q21 39 25 96q-23 14 -23 49zM186 740q0 23 14.5 37.5t36.5 14.5q55 0 55 -59q0 -50 -29.5 -105.5t-46.5 -55.5q-26 0 -31 23q20 39 24 96q-23 14 -23 49z" />
<glyph unicode="&#x201e;" horiz-adv-x="322" d="M36 54q0 22 14 37t36 15q55 0 55 -59q0 -51 -29 -106t-46 -55q-27 0 -32 23q21 38 25 96q-23 14 -23 49zM186 54q0 22 14.5 37t36.5 15q55 0 55 -59q0 -51 -29.5 -106t-46.5 -55q-26 0 -31 23q20 38 24 96q-23 14 -23 49z" />
<glyph unicode="&#x2022;" horiz-adv-x="223" d="M41 284q0 32 20 54.5t54 22.5q74 0 74 -77q0 -32 -20 -54t-54 -22q-74 0 -74 76z" />
<glyph unicode="&#x2026;" horiz-adv-x="522" d="M35 51q0 24 15.5 41t40.5 17q56 0 56 -58q0 -25 -15 -41t-41 -16q-56 0 -56 57zM205 51q0 24 15.5 41t40.5 17q56 0 56 -58q0 -25 -15 -41t-41 -16q-56 0 -56 57zM375 51q0 24 15.5 41t40.5 17q56 0 56 -58q0 -25 -15 -41t-41 -16q-56 0 -56 57z" />
<glyph unicode="&#x202f;" horiz-adv-x="191" />
<glyph unicode="&#x2039;" horiz-adv-x="247" d="M18 250q0 15 36 77.5t72 117.5l37 55q14 0 26.5 -10t17.5 -20l5 -11q0 -17 -29.5 -69t-58.5 -96l-30 -44q120 -165 120 -203q-2 -5 -5.5 -13t-16 -21t-26.5 -13q-148 214 -148 250z" />
<glyph unicode="&#x203a;" horiz-adv-x="247" d="M229 250q0 -16 -37 -78.5t-74 -117.5l-37 -54q-5 1 -13.5 4.5t-22 15.5t-13.5 27q0 16 30 67t60 94l30 42q-117 171 -117 209q0 12 12 22.5t24 14.5l12 4q146 -216 146 -250z" />
<glyph unicode="&#x205f;" horiz-adv-x="239" />
<glyph unicode="&#x20ac;" d="M289 70q54 0 88 25q12 -22 12 -52q0 -17 -34.5 -34.5t-81.5 -17.5q-77 0 -118 41.5t-50 165.5h-89q0 39 6 53.5t26 14.5h54v8q0 25 2 65h-88q0 39 6 53.5t26 14.5h64q10 61 30 102.5t46.5 61.5t52 27.5t55.5 7.5q35 0 58.5 -7.5t32 -16t8.5 -16.5q0 -37 -13 -55 q-30 21 -66 21q-89 0 -116 -125h143q0 -39 -6 -53.5t-26 -14.5h-120q-2 -38 -2 -62v-11h121q0 -39 -6 -53.5t-26 -14.5h-86q8 -78 31 -103t66 -25z" />
<glyph unicode="&#x2122;" horiz-adv-x="503" d="M30 691q0 4 2 6.5t4 2.5h3h190v-30q0 -4 -2.5 -6t-4.5 -2l-3 -1h-66v-270q0 -7 -5 -8t-36 -1v279h-82v30zM420 700h32v-309q0 -7 -5 -8t-37 -1l1 111q1 36 8 117q-11 -38 -25 -81l-27 -74q-3 -4 -6 -4h-21l-28 78q-13 38 -26 82q7 -51 9 -117v-103q0 -7 -5.5 -8t-35.5 -1 v309q0 9 10 9h28l44 -126l19 -55q10 36 16 53l40 119q2 9 9 9z" />
<glyph unicode="&#x25fc;" horiz-adv-x="500" d="M0 500h500v-500h-500v500z" />
<glyph unicode="&#xfb03;" horiz-adv-x="606" d="M462 739q115 0 115 -49q0 -22 -9 -47q-46 22 -104 22q-49 0 -75.5 -20t-26.5 -83v-62h70q0 -48 -2.5 -58.5t-14.5 -10.5h-53v-414q0 -17 -16 -17h-65v431h-68h-53v-414q0 -17 -17 -17h-64v431h-69q0 49 3 59t18 10h48v69q0 165 157 165q56 0 100 -28q43 33 126 33z M281 500v61q0 52 15 90q-25 14 -60 14q-76 0 -76 -87v-78h99h22zM477 463q0 26 14.5 31.5t68.5 5.5v-483q0 -13 -10.5 -15t-72.5 -2v463z" />
<glyph unicode="&#xfb04;" horiz-adv-x="616" d="M570 17q0 -13 -10 -15t-72 -2v659q-23 7 -44 7q-17 0 -29.5 -3t-25.5 -11.5t-20 -28.5t-7 -51v-72h69q0 -48 -2.5 -58.5t-14.5 -10.5h-52v-414q0 -17 -16 -17h-65v431h-61h-60v-414q0 -17 -17 -17h-64v431h-69q0 49 3 59t18 10h48v69q0 165 157 165q53 0 98 -26 q38 31 104 31q75 0 132 -34v-688zM281 500v61q0 51 15 91q-26 13 -60 13q-76 0 -76 -87v-78h99h22z" />
</font>
</defs>
</svg>
