<?xml version="1.0" standalone="no"?>
<!DOCTYPE svg PUBLIC "-//W3C//DTD SVG 1.1//EN" "http://www.w3.org/Graphics/SVG/1.1/DTD/svg11.dtd" >
<svg xmlns="http://www.w3.org/2000/svg" xmlns:xlink="http://www.w3.org/1999/xlink" version="1.1">
<metadata></metadata>
<defs>
<font id="agencyfbregular" horiz-adv-x="615" >
<font-face units-per-em="1000" ascent="800" descent="-200" />
<missing-glyph horiz-adv-x="286" />
<glyph horiz-adv-x="0" />
<glyph horiz-adv-x="333" />
<glyph horiz-adv-x="567" d="M427 582v91h-102v-62h-82v62h-103v-91q0 -51 52 -51h183q52 0 52 51z" />
<glyph horiz-adv-x="567" d="M350 531v123h-132v-123h132z" />
<glyph horiz-adv-x="567" d="M421 576v127q0 47 -48 47h-180q-47 0 -47 -47v-127q0 -47 47 -47h180q48 0 48 47zM329 598h-91v85h91v-85z" />
<glyph unicode="&#xa;" horiz-adv-x="567" d="M535 671v4h-166l-124 -140v-4h113zM331 671v4h-166l-124 -140v-4h114z" />
<glyph horiz-adv-x="567" d="M405 -206v76h-156v42l122 92v6h-128l-67 -52q-14 -11 -19.5 -20.5t-5.5 -30.5v-69q0 -44 43 -44h211z" />
<glyph horiz-adv-x="567" d="M471 671v4h-106l-81 -64l-80 64h-108v-4l132 -140h111z" />
<glyph unicode="&#xd;" horiz-adv-x="500" />
<glyph horiz-adv-x="663" d="M633 756v8h-148l-455 -756v-8h149z" />
<glyph horiz-adv-x="651" d="M584 0v493h-324v159h180v-94h144v142q0 64 -67 64h-334q-66 0 -66 -64v-207h-84v-110h84v-383h143v383h180v-383h144z" />
<glyph horiz-adv-x="651" d="M584 0v764h-401q-66 0 -66 -64v-207h-84v-110h84v-383h143v383h129v110h-129v159h180v-652h144z" />
<glyph horiz-adv-x="616" d="M588 0v125h-351v170l126 69v131h-6l-120 -66v335h-147v-419l-63 -34v-132h7l56 31v-210h498z" />
<glyph horiz-adv-x="334" d="M312 345v119h-7l-65 -34v334h-144v-411l-69 -37v-119h7l62 33v-230h144v306z" />
<glyph horiz-adv-x="658" d="M615 0v125h-385l382 557v82h-551v-125h357l-383 -560v-79h580zM526 940v4h-106l-81 -64l-80 64h-108v-4l132 -140h111z" />
<glyph horiz-adv-x="545" d="M497 0v104h-273l270 311v78h-435v-105h252l-267 -310v-78h453zM465 671v4h-106l-81 -64l-80 64h-108v-4l132 -140h111z" />
<glyph unicode=" "  horiz-adv-x="286" />
<glyph unicode="&#x09;" horiz-adv-x="286" />
<glyph unicode="&#xa0;" horiz-adv-x="286" />
<glyph unicode="!" horiz-adv-x="310" d="M229 764h-147l17 -572h113zM223 0v131h-135v-131h135z" />
<glyph unicode="&#x22;" horiz-adv-x="439" d="M376 764h-122l20 -241h82zM186 764h-123l21 -241h82z" />
<glyph unicode="#" horiz-adv-x="702" d="M667 464v114h-96l34 186h-121l-34 -186h-125l34 186h-121l-34 -186h-128v-114h108l-30 -165h-114v-114h93l-34 -185h121l33 185h126l-34 -185h121l33 185h130v114h-109l30 165h117zM430 464l-30 -165h-126l30 165h126z" />
<glyph unicode="$" horiz-adv-x="719" d="M646 77v192q0 24 -8 39t-28 26l-191 97v212h79v-123h148v169q0 32 -18 50.5t-49 18.5h-160v75h-120v-75h-159q-31 0 -49 -18.5t-18 -52.5v-178q0 -25 7.5 -39t27.5 -25l191 -98v-227h-79v139h-147v-182q0 -34 18 -52.5t49 -18.5h159v-75h120v75h159q31 0 49.5 18.5 t18.5 52.5zM299 491l-79 42v110h79v-152zM498 120h-79v167l79 -42v-125z" />
<glyph unicode="%" horiz-adv-x="884" d="M824 64v246q0 34 -15 49t-47 15h-193q-33 0 -48.5 -14.5t-15.5 -48.5v-247q0 -64 64 -64h193q62 0 62 64zM773 756v8h-117l-546 -756v-8h117zM379 453v247q0 35 -15 49.5t-48 14.5h-193q-32 0 -47.5 -14.5t-15.5 -49.5v-247q0 -33 15.5 -48t47.5 -15h193q33 0 48 15 t15 48zM728 83h-126v208h126v-208zM283 473h-127v208h127v-208z" />
<glyph unicode="&#x26;" horiz-adv-x="769" d="M729 335v119h-417l-90 49v144h290v-107h146v156q0 68 -68 68h-448q-68 0 -68 -68v-192q0 -23 7.5 -36t28.5 -26l84 -47l-85 -47q-22 -14 -29.5 -27t-7.5 -37v-216q0 -68 69 -68h510v335h78zM505 117h-285v166l91 52h194v-218z" />
<glyph unicode="'" horiz-adv-x="242" d="M182 764h-122l20 -241h82z" />
<glyph unicode="(" horiz-adv-x="448" d="M395 -98v7q-38 40 -70 86t-55 98.5t-36 112t-13 127.5t13 127.5t36 112t55 98t70 86.5v7h-145q-39 -38 -73 -83.5t-59 -99t-39.5 -115.5t-14.5 -133t14.5 -133t39.5 -115.5t59 -99t73 -83.5h145z" />
<glyph unicode=")" horiz-adv-x="448" d="M384 333q0 71 -14.5 133t-39 115.5t-58.5 99t-73 83.5h-146v-7q38 -41 70 -86.5t55.5 -98t36.5 -112t13 -127.5t-13 -127.5t-36.5 -112t-55.5 -98.5t-70 -86v-7h146q39 38 73 83.5t58.5 99t39 115.5t14.5 133z" />
<glyph unicode="*" horiz-adv-x="515" d="M469 515l-129 59l129 60l-55 92l-112 -79l9 139h-107l10 -139l-113 79l-54 -92l128 -60l-129 -59l54 -92l114 80l-10 -141h107l-9 141l113 -80z" />
<glyph unicode="+" horiz-adv-x="613" d="M557 270v119h-187v177h-128v-177h-186v-119h186v-176h128v176h187z" />
<glyph unicode="," horiz-adv-x="247" d="M201 133h-138l-14 -206h87z" />
<glyph unicode="-" horiz-adv-x="424" d="M368 241v118h-312v-118h312z" />
<glyph unicode="." horiz-adv-x="247" d="M187 0v133h-126v-133h126z" />
<glyph unicode="/" horiz-adv-x="663" d="M633 756v8h-148l-455 -756v-8h149z" />
<glyph unicode="0" horiz-adv-x="746" d="M673 71v622q0 33 -18.5 52t-50.5 19h-461q-33 0 -51 -19t-18 -52v-622q0 -33 17.5 -52t49.5 -19h463q32 0 50.5 19t18.5 52zM526 121h-305v522h305v-522z" />
<glyph unicode="1" horiz-adv-x="323" d="M247 0v764h-138l-66 -172v-18h57v-574h147z" />
<glyph unicode="2" horiz-adv-x="720" d="M659 0v124h-362l316 316q22 20 30.5 36t8.5 45v172q0 33 -19 52t-52 19h-438q-34 0 -53 -19t-19 -52v-179h147v130h287v-129l-448 -428v-87h602z" />
<glyph unicode="3" horiz-adv-x="740" d="M668 71v223q0 27 -11.5 42t-35.5 23l-109 37l108 39q26 10 37 26t11 43v189q0 33 -18 52t-50 19h-458q-32 0 -50 -19t-18 -52v-172h147v122h300v-131l-222 -93v-46l222 -94v-158h-301v131h-146v-181q0 -33 17.5 -52t49.5 -19h459q32 0 50 19t18 52z" />
<glyph unicode="4" horiz-adv-x="734" d="M706 148v120h-101v254h-145v-254h-251l310 491v5h-162l-331 -519v-97h434v-149h145v149h101z" />
<glyph unicode="5" horiz-adv-x="734" d="M662 71v340q0 33 -18 51.5t-50 18.5h-371l8 159h419v124h-554l-19 -402h438v-241h-295v127h-147v-177q0 -33 18 -52t50 -19h453q32 0 50 19t18 52z" />
<glyph unicode="6" horiz-adv-x="739" d="M666 71v306q0 33 -18 52t-50 19h-378v195h294v-112h147v162q0 33 -18 52t-50 19h-452q-32 0 -49.5 -19t-17.5 -52v-622q0 -33 18 -52t52 -19h454q32 0 50 19t18 52zM520 121h-300v208h300v-208z" />
<glyph unicode="7" horiz-adv-x="712" d="M667 677v87h-617v-230h145v109h298l-289 -643h163z" />
<glyph unicode="8" horiz-adv-x="752" d="M679 71v221q0 30 -9 44t-35 24l-109 35l108 37q24 9 33.5 24t9.5 43v194q0 33 -17.5 52t-49.5 19h-467q-33 0 -50.5 -19t-17.5 -52v-194q0 -28 9 -42.5t34 -24.5l108 -37l-110 -35q-23 -9 -33 -24t-10 -44v-221q0 -33 18 -52t50 -19h470q32 0 50 19t18 52zM531 501 l-155 -54l-155 54v147h310v-147zM532 116h-312v174l156 52l156 -52v-174z" />
<glyph unicode="9" horiz-adv-x="739" d="M665 71v622q0 33 -18.5 52t-51.5 19h-455q-32 0 -49.5 -19t-17.5 -52v-306q0 -33 17.5 -52t49.5 -19h379v-195h-294v112h-147v-162q0 -33 18 -52t50 -19h451q32 0 50 19t18 52zM519 435h-300v208h300v-208z" />
<glyph unicode=":" horiz-adv-x="244" d="M187 300v135h-126v-135h126zM187 0v133h-126v-133h126z" />
<glyph unicode=";" horiz-adv-x="244" d="M187 300v135h-126v-135h126zM199 133h-138l-14 -206h87z" />
<glyph unicode="&#x3c;" horiz-adv-x="482" d="M412 73v139l-190 121l190 120v139h-6l-352 -239v-41l352 -239h6z" />
<glyph unicode="=" horiz-adv-x="595" d="M538 370v105h-480v-105h480zM538 172v104h-480v-104h480z" />
<glyph unicode="&#x3e;" horiz-adv-x="482" d="M429 312v41l-352 239h-7v-138l190 -121l-190 -121v-139h7z" />
<glyph unicode="?" horiz-adv-x="637" d="M590 532v162q0 33 -18.5 51.5t-51.5 18.5h-392q-33 0 -51.5 -18.5t-18.5 -51.5v-166h141v124h250v-124l-183 -149q-14 -13 -21.5 -28t-7.5 -39v-120h139v125l184 151q14 12 22 26.5t8 37.5zM375 0v131h-137v-131h137z" />
<glyph unicode="@" horiz-adv-x="788" d="M715 0v59h-580v646h518v-480h-101v330q0 22 -12 34.5t-34 12.5h-221q-22 0 -34 -12.5t-12 -34.5v-89h93v62h124v-100h-178q-45 0 -45 -46v-171q0 -46 45 -46h392q21 0 33 11.5t12 33.5v509q0 21 -12 33t-33 12h-552q-22 0 -33.5 -12t-11.5 -33v-674q0 -21 11.5 -33 t33.5 -12h597zM456 237h-128v121h128v-121z" />
<glyph unicode="A" horiz-adv-x="721" d="M697 0v2l-258 762h-156l-258 -762v-2h150l43 140h286l42 -140h151zM465 257h-209l104 340z" />
<glyph unicode="B" horiz-adv-x="738" d="M666 71v211q0 26 -9.5 41t-30.5 26l-81 46l76 45q21 11 30 26t9 41v186q0 33 -18 52t-50 19h-518v-764h522q33 0 51.5 19t18.5 52zM512 502l-82 -54h-209v199h291v-145zM518 117h-297v225h210l87 -53v-172z" />
<glyph unicode="C" horiz-adv-x="745" d="M673 71v203h-147v-153h-305v522h305v-144h147v194q0 33 -18.5 52t-50.5 19h-463q-32 0 -49.5 -19t-17.5 -52v-622q0 -33 17.5 -52t49.5 -19h463q32 0 50.5 19t18.5 52z" />
<glyph unicode="D" horiz-adv-x="739" d="M678 207v347q0 102 -55 156t-158 54h-391v-764h391q103 0 158 53t55 154zM530 222q0 -99 -104 -99h-205v518h206q103 0 103 -99v-320z" />
<glyph unicode="E" horiz-adv-x="654" d="M607 0v124h-386v206h309v118h-309v192h381v124h-528v-764h533z" />
<glyph unicode="F" horiz-adv-x="618" d="M592 640v124h-518v-764h147v327h302v118h-302v195h371z" />
<glyph unicode="G" horiz-adv-x="747" d="M674 71v346h-328v-116h180v-180h-305v522h305v-121h148v171q0 33 -18.5 52t-50.5 19h-462q-33 0 -51 -19t-18 -52v-622q0 -33 17.5 -52t49.5 -19h464q32 0 50.5 19t18.5 52z" />
<glyph unicode="H" horiz-adv-x="750" d="M677 0v764h-148v-310h-308v310h-147v-764h147v323h308v-323h148z" />
<glyph unicode="I" horiz-adv-x="295" d="M221 0v764h-147v-764h147z" />
<glyph unicode="J" horiz-adv-x="679" d="M606 71v693h-148v-641h-259v160h-147v-212q0 -33 18 -52t50 -19h416q33 0 51.5 19t18.5 52z" />
<glyph unicode="K" horiz-adv-x="660" d="M658 0v6l-314 391l277 361v6h-178l-222 -309v309h-147v-764h147v327l254 -327h183z" />
<glyph unicode="L" horiz-adv-x="599" d="M571 0v125h-350v639h-147v-764h497z" />
<glyph unicode="M" horiz-adv-x="865" d="M792 0v764h-149l-210 -466l-210 466h-149v-764h144v412l159 -334h112l159 334v-412h144z" />
<glyph unicode="N" horiz-adv-x="753" d="M679 0v764h-147v-495l-30 53l-280 442h-148v-764h146v495l46 -73l266 -422h147z" />
<glyph unicode="O" horiz-adv-x="757" d="M683 71v622q0 33 -18 52t-50 19h-474q-32 0 -49.5 -19t-17.5 -52v-622q0 -33 17.5 -52t49.5 -19h474q32 0 50 19t18 52zM536 121h-315v522h315v-522z" />
<glyph unicode="P" horiz-adv-x="703" d="M645 331v362q0 33 -18 52t-50 19h-503v-764h147v260h355q33 0 51 19t18 52zM498 379h-277v264h277v-264z" />
<glyph unicode="Q" horiz-adv-x="797" d="M783 0v124l-100 56v513q0 33 -18 52t-50 19h-473q-32 0 -50 -19t-18 -52v-622q0 -33 17.5 -52t49.5 -19h474q25 0 41.5 12t21.5 33l1 10l95 -55h9zM536 121h-315v522h315v-369l-112 65h-8v-124l120 -69v-25z" />
<glyph unicode="R" horiz-adv-x="717" d="M687 0v6l-219 302h115q32 1 50 19t18 51v315q0 33 -18 52t-50 19h-509v-764h147v643h283v-232h-224v-80l237 -331h170z" />
<glyph unicode="S" horiz-adv-x="719" d="M646 71v198q0 24 -8 39t-28 26l-390 199v115h278v-126h148v172q0 33 -18 51.5t-50 18.5h-436q-32 0 -50.5 -19t-18.5 -52v-184q0 -24 7.5 -38.5t27.5 -25.5l390 -200v-129h-278v141h-147v-186q0 -33 18.5 -52t50.5 -19h435q32 0 50.5 19t18.5 52z" />
<glyph unicode="T" horiz-adv-x="647" d="M622 640v124h-596v-124h224v-640h147v640h225z" />
<glyph unicode="U" horiz-adv-x="749" d="M676 71v693h-147v-641h-308v641h-147v-693q0 -33 18 -52t51 -19h464q32 0 50.5 19t18.5 52z" />
<glyph unicode="V" horiz-adv-x="710" d="M685 762v2h-151l-179 -567l-178 567h-151v-2l256 -762h146z" />
<glyph unicode="W" horiz-adv-x="1043" d="M1017 764h-154l-136 -521l-138 521h-135l-138 -521l-136 521h-154l210 -764h144l141 507l141 -507h145z" />
<glyph unicode="X" horiz-adv-x="706" d="M680 0v5l-242 386l230 368v5h-170l-145 -240l-144 240h-170v-5l230 -367l-242 -387v-5h170l156 259l157 -259h170z" />
<glyph unicode="Y" horiz-adv-x="708" d="M685 759v5h-156l-175 -352l-174 352h-156v-5l256 -487v-272h148v272z" />
<glyph unicode="Z" horiz-adv-x="658" d="M616 0v125h-385l382 557v82h-551v-125h357l-383 -560v-79h580z" />
<glyph unicode="[" horiz-adv-x="433" d="M370 -121v125h-151v635h151v125h-231q-29 0 -45.5 -16t-16.5 -45v-762q0 -62 62 -62h231z" />
<glyph unicode="\" horiz-adv-x="663" d="M633 0v8l-454 756h-149v-8l454 -756h149z" />
<glyph unicode="]" horiz-adv-x="433" d="M356 -59v762q0 61 -61 61h-232v-125h152v-635h-152v-125h232q61 0 61 62z" />
<glyph unicode="^" horiz-adv-x="590" d="M524 494v5l-167 265h-122l-167 -265v-5h120l108 156l107 -156h121z" />
<glyph unicode="_" horiz-adv-x="584" d="M586 -200v100h-588v-100h588z" />
<glyph unicode="`" horiz-adv-x="567" d="M466 531v4l-125 142h-191v-5l194 -141h122z" />
<glyph unicode="a" horiz-adv-x="592" d="M528 0v429q0 64 -66 64h-323q-67 0 -67 -64v-87h127v58h192v-101h-261q-35 0 -51 -15.5t-16 -48.5v-176q0 -29 17.5 -45.5t48.5 -16.5q15 0 35 3l226 26v-26h138zM391 108l-191 -12v117h191v-105z" />
<glyph unicode="b" d="M549 108v326q0 28 -17 44.5t-49 16.5q-18 0 -37 -3l-235 -27v299h-144v-764h366q61 0 88.5 25.5t27.5 82.5zM405 150q0 -41 -40 -41h-154v259l194 13v-231z" />
<glyph unicode="c" horiz-adv-x="608" d="M542 64v123h-143v-78h-189v275h189v-73h143v118q0 33 -15.5 48.5t-50.5 15.5h-343q-35 0 -50.5 -15.5t-15.5 -48.5v-365q0 -33 15.5 -48.5t50.5 -15.5h343q35 0 50.5 15.5t15.5 48.5z" />
<glyph unicode="d" d="M548 0v764h-143v-271h-221q-62 0 -90 -25.5t-28 -82.5v-284q0 -51 28 -78t82 -27q8 0 21.5 1.5t23.5 3.5l184 25v-26h143zM405 124l-137 -13q-5 -1 -12 -1h-12q-19 0 -26.5 8.5t-7.5 29.5v196q0 23 8.5 31.5t32.5 8.5h154v-260z" />
<glyph unicode="e" horiz-adv-x="605" d="M538 64v93h-139v-64h-194v117h295l38 38v181q0 64 -66 64h-339q-35 0 -50.5 -15.5t-15.5 -48.5v-365q0 -33 15.5 -48.5t50.5 -15.5h339q66 0 66 64zM399 296h-194v104h194v-104z" />
<glyph unicode="f" horiz-adv-x="416" d="M403 652v112h-220q-66 0 -66 -64v-207h-84v-110h84v-383h143v383h129v110h-129v159h143z" />
<glyph unicode="g" d="M548 -116v609h-143v-28l-184 26q-9 2 -22 3t-24 1q-109 0 -109 -105v-270q0 -57 27.5 -82.5t88.5 -25.5h223v-99h-188v56h-140v-85q0 -64 67 -64h337q35 0 51 15.5t16 48.5zM405 113h-154q-24 0 -32.5 9t-8.5 32v190q0 21 8 30t29 9q15 0 32 -3l126 -13v-254z" />
<glyph unicode="h" d="M549 0v434q0 29 -17 45t-49 16q-19 0 -38 -3l-234 -27v299h-144v-764h144v363l194 13v-376h144z" />
<glyph unicode="i" horiz-adv-x="279" d="M212 558v130h-145v-130h145zM211 0v493h-143v-493h143z" />
<glyph unicode="j" horiz-adv-x="283" d="M216 558v130h-145v-130h145zM215 -116v609h-143v-565h-99v-108h176q35 0 50.5 15.5t15.5 48.5z" />
<glyph unicode="k" horiz-adv-x="560" d="M548 0v4l-216 256l194 229v4h-164l-151 -191v462h-144v-764h144v216l168 -216h169z" />
<glyph unicode="l" horiz-adv-x="279" d="M211 0v764h-143v-764h143z" />
<glyph unicode="m" horiz-adv-x="942" d="M876 0v434q0 29 -17 45t-49 16q-9 0 -20 -0.5t-20 -2.5l-234 -28l-3 5q-6 11 -20.5 18.5t-35.5 7.5q-8 0 -19 -0.5t-21 -2.5l-226 -27v28h-144v-493h144v363l189 13v-376h143v363l189 13v-376h144z" />
<glyph unicode="n" d="M549 0v434q0 29 -17 45t-49 16q-18 0 -39 -3l-233 -27v28h-144v-493h144v363l194 13v-376h144z" />
<glyph unicode="o" horiz-adv-x="614" d="M547 64v365q0 64 -65 64h-349q-35 0 -50.5 -15.5t-15.5 -48.5v-365q0 -33 15.5 -48.5t50.5 -15.5h349q65 0 65 64zM405 109h-195v275h195v-275z" />
<glyph unicode="p" d="M549 108v326q0 29 -17 45t-49 16q-18 0 -37 -3l-235 -27v28h-144v-673h144v180h220q63 0 90.5 25.5t27.5 82.5zM405 148q0 -22 -8 -30.5t-31 -8.5h-155v258l194 13v-232z" />
<glyph unicode="q" d="M548 -180v673h-143v-28l-184 26q-11 2 -23 3t-23 1q-109 0 -109 -104v-283q0 -57 27.5 -82.5t88.5 -25.5h223v-180h143zM405 109h-157q-21 0 -29.5 8.5t-8.5 30.5v198q0 20 8 28t27 8h11t12 -1l137 -15v-257z" />
<glyph unicode="r" horiz-adv-x="560" d="M518 269v165q0 28 -17 44.5t-49 16.5q-9 0 -19 -0.5t-18 -2.5l-204 -27v28h-144v-493h144v363l163 12v-106h144z" />
<glyph unicode="s" horiz-adv-x="585" d="M520 64v125q0 25 -13 40.5t-36 22.5l-267 84v64h178v-65h136v94q0 64 -65 64h-320q-67 0 -67 -64v-121q0 -25 12.5 -39.5t35.5 -21.5l268 -86v-69h-178v69h-138v-97q0 -33 15.5 -48.5t50.5 -15.5h322q66 0 66 64z" />
<glyph unicode="t" horiz-adv-x="430" d="M389 0v110h-131v273h119v110h-119v141h-144v-141h-85v-110h85v-319q0 -64 67 -64h208z" />
<glyph unicode="u" d="M549 0v493h-144v-363l-195 -13v376h-143v-434q0 -29 16.5 -45.5t48.5 -16.5q19 0 40 3l233 27v-27h144z" />
<glyph unicode="v" horiz-adv-x="578" d="M556 493h-152l-114 -326l-115 326h-153l196 -493h142z" />
<glyph unicode="w" horiz-adv-x="828" d="M808 493h-147l-94 -312l-93 312h-120l-94 -312l-93 312h-147l170 -493h130l93 279l95 -279h130z" />
<glyph unicode="x" horiz-adv-x="579" d="M558 0v3l-188 254l167 233v3h-156l-92 -139l-90 139h-156v-3l165 -234l-187 -253v-3h168l100 152l100 -152h169z" />
<glyph unicode="y" horiz-adv-x="578" d="M556 493h-152l-115 -326l-114 326h-153l194 -489l-80 -184h151z" />
<glyph unicode="z" horiz-adv-x="545" d="M497 0v104h-273l270 311v78h-435v-105h252l-267 -310v-78h453z" />
<glyph unicode="{" horiz-adv-x="529" d="M465 -121v125h-105q-23 0 -34.5 10.5t-11.5 34.5v186q0 24 -6 34.5t-26 24.5l-72 42l72 43q20 14 26 25t6 35v156q0 45 45 45h106v124h-161q-132 0 -132 -132v-188l-126 -89v-36l126 -90v-218q0 -65 33 -98.5t99 -33.5h161z" />
<glyph unicode="|" horiz-adv-x="292" d="M218 -178v942h-143v-942h143z" />
<glyph unicode="}" horiz-adv-x="529" d="M483 319v35l-126 90v188q0 65 -33 98.5t-98 33.5h-162v-124h106q46 0 46 -45v-156q0 -12 1 -20.5t4.5 -15t10 -12t16.5 -12.5l71 -43l-71 -43q-10 -7 -16.5 -12.5t-10 -11.5t-4.5 -14.5t-1 -20.5v-185q0 -46 -47 -46h-105v-124h162q65 0 98 33.5t33 98.5v218z" />
<glyph unicode="~" horiz-adv-x="620" d="M527 251v150h-108v-89l-226 81q-28 11 -50 11t-35.5 -15t-13.5 -38v-151h107v89l225 -81q28 -11 51 -11q22 0 36 15t14 39z" />
<glyph unicode="&#xa1;" horiz-adv-x="310" d="M223 633v131h-135v-131h135zM229 0l-17 572h-113l-17 -572h147z" />
<glyph unicode="&#xa2;" horiz-adv-x="608" d="M542 205v124h-143v-79h-41v267h41v-73h143v118q0 32 -15.5 47.5t-50.5 15.5h-118v139h-104v-139h-121q-35 0 -50.5 -15.5t-15.5 -47.5v-357q0 -32 15.5 -47.5t50.5 -15.5h121v-142h104v142h118q35 0 50.5 15.5t15.5 47.5zM254 250h-44v267h44v-267z" />
<glyph unicode="&#xa3;" horiz-adv-x="729" d="M672 0v121h-406v196h201v116h-201v211h252v-121h146v172q0 33 -17.5 51t-50.5 18h-406q-33 0 -51.5 -19t-18.5 -52v-260h-78v-116h78v-196h-78v-121h630z" />
<glyph unicode="&#xa4;" horiz-adv-x="789" d="M752 0l-178 198l165 193h-169l-81 -96l-222 259v93h195v-87h144v135q0 32 -18.5 50.5t-51.5 18.5h-343q-32 0 -50.5 -18.5t-18.5 -50.5v-123q0 -23 6 -36.5t21 -30.5l64 -83l-113 -91q-10 -8 -16 -14.5t-9.5 -14t-5 -17.5t-1.5 -24v-194q0 -33 18 -50t50 -17h221 q15 0 25 1.5t18 5t14.5 10t14.5 16.5l60 69l91 -102h170zM406 201l-65 -84h-128v136l88 71z" />
<glyph unicode="&#xa5;" horiz-adv-x="708" d="M685 759v5h-156l-175 -352l-174 352h-156v-5l133 -253h-107v-112h166l38 -72h-204v-113h230v-209h148v209h229v113h-203l38 72h165v112h-106z" />
<glyph unicode="&#xa6;" horiz-adv-x="754" d="M684 55v654q0 27 -15 41t-42 14h-500q-56 0 -56 -55v-654q0 -55 56 -55h500q27 0 42 14t15 41zM569 584h-384v84h384v-84zM569 422h-384v83h384v-83zM569 259h-384v83h384v-83zM569 96h-384v83h384v-83z" />
<glyph unicode="&#xa7;" horiz-adv-x="677" d="M606 64v128q0 27 -9 40t-34 20l-79 26l80 26q26 8 34 19.5t8 40.5v77q0 28 -9.5 40t-38.5 20l-347 95v73h256v-78h139v109q0 64 -65 64h-404q-66 0 -66 -64v-128q0 -26 8.5 -39t33.5 -21l80 -26l-80 -26q-25 -8 -33.5 -20t-8.5 -40v-78q0 -28 9.5 -39.5t37.5 -19.5 l349 -95v-73h-256v78h-140v-109q0 -64 66 -64h404q65 0 65 64zM468 355l-130 -41l-128 41v55l128 40l130 -40v-55z" />
<glyph unicode="&#xa8;" horiz-adv-x="567" d="M445 531v119h-129v-119h129zM250 531v119h-128v-119h128z" />
<glyph unicode="&#xa9;" horiz-adv-x="788" d="M715 45v674q0 21 -12 33t-33 12h-552q-22 0 -33.5 -12t-11.5 -33v-674q0 -21 11.5 -33t33.5 -12h551q21 0 33.5 12t12.5 33zM653 59h-518v646h518v-646zM555 212v119h-96v-81h-131v267h131v-78h96v116q0 21 -12 34t-33 13h-233q-22 0 -34 -13t-12 -34v-343 q0 -22 12 -34.5t34 -12.5h233q21 0 33 12.5t12 34.5z" />
<glyph unicode="&#xaa;" horiz-adv-x="486" d="M425 379v335q0 50 -55 50h-246q-55 0 -55 -50v-70h104v46h139v-78h-195q-55 0 -55 -50v-139q0 -23 14 -35.5t40 -12.5q12 0 30 3l166 19v-18h113zM426 224v91h-365v-91h365zM312 462l-138 -11v98h138v-87z" />
<glyph unicode="&#xab;" horiz-adv-x="687" d="M636 461v5h-155l-172 -185v-21l171 -184h155v5l-178 189zM374 461v5h-154l-172 -185v-21l171 -184h154v5l-177 189z" />
<glyph unicode="&#xac;" horiz-adv-x="754" d="M684 55v654q0 27 -15 41t-42 14h-500q-56 0 -56 -55v-654q0 -55 56 -55h500q27 0 42 14t15 41zM569 584h-384v84h384v-84zM569 422h-384v83h384v-83zM569 259h-384v83h384v-83zM569 96h-384v83h384v-83z" />
<glyph unicode="&#xad;" horiz-adv-x="424" d="M368 241v118h-312v-118h312z" />
<glyph unicode="&#xae;" horiz-adv-x="788" d="M715 45v674q0 21 -12 33t-33 12h-552q-22 0 -33.5 -12t-11.5 -33v-674q0 -21 11.5 -33t33.5 -12h551q21 0 33.5 12t12.5 33zM653 59h-518v646h518v-646zM582 166v5l-123 162h63q18 2 29 13.5t11 32.5v174q0 22 -12 34.5t-33 12.5h-291v-434h96v358h145v-122h-115l-3 -67 l125 -169h108z" />
<glyph unicode="&#xaf;" horiz-adv-x="567" d="M436 536v90h-306v-90h306z" />
<glyph unicode="&#xb0;" horiz-adv-x="439" d="M378 480v220q0 35 -15 49.5t-47 14.5h-192q-32 0 -47.5 -14.5t-15.5 -49.5v-220q0 -33 15.5 -48t47.5 -15h192q32 0 47 15t15 48zM285 499h-132v182h132v-182z" />
<glyph unicode="&#xb1;" horiz-adv-x="992" d="M925 0v764h-401q-67 0 -67 -64v-207h-197v159h143v112h-220q-66 0 -66 -64v-207h-84v-110h84v-383h143v383h197v-383h143v383h129v110h-129v159h181v-652h144z" />
<glyph unicode="&#xb2;" horiz-adv-x="754" d="M684 55v654q0 27 -15 41t-42 14h-500q-56 0 -56 -55v-654q0 -55 56 -55h500q27 0 42 14t15 41zM569 584h-384v84h384v-84zM569 422h-384v83h384v-83zM569 259h-384v83h384v-83zM569 96h-384v83h384v-83z" />
<glyph unicode="&#xb3;" horiz-adv-x="754" d="M684 55v654q0 27 -15 41t-42 14h-500q-56 0 -56 -55v-654q0 -55 56 -55h500q27 0 42 14t15 41zM569 584h-384v84h384v-84zM569 422h-384v83h384v-83zM569 259h-384v83h384v-83zM569 96h-384v83h384v-83z" />
<glyph unicode="&#xb4;" horiz-adv-x="567" d="M420 672v5h-191l-123 -142v-4h121z" />
<glyph unicode="&#xb5;" horiz-adv-x="962" d="M889 0v764h-150l-257 -209h-1l-257 209h-150v-764h146v598l189 -154v-444h145v444l189 154v-598h146z" />
<glyph unicode="&#xb6;" horiz-adv-x="755" d="M682 0v764h-545q-73 0 -73 -74v-361q0 -35 18.5 -54.5t54.5 -19.5h183v-255h138v255h86v-255h138zM544 375h-230v269h230v-269z" />
<glyph unicode="&#xb7;" horiz-adv-x="252" d="M192 232v137h-132v-137h132z" />
<glyph unicode="&#xb8;" horiz-adv-x="567" d="M416 -162v67q0 19 -5 28t-24 17l-59 28v32h-94v-42q0 -20 5 -28.5t23 -15.5l60 -24v-39h-78v37h-94v-60q0 -44 43 -44h180q43 0 43 44z" />
<glyph unicode="&#xb9;" horiz-adv-x="754" d="M684 55v654q0 27 -15 41t-42 14h-500q-56 0 -56 -55v-654q0 -55 56 -55h500q27 0 42 14t15 41zM569 584h-384v84h384v-84zM569 422h-384v83h384v-83zM569 259h-384v83h384v-83zM569 96h-384v83h384v-83z" />
<glyph unicode="&#xba;" horiz-adv-x="502" d="M441 430v284q0 50 -54 50h-270q-55 0 -55 -50v-284q0 -51 55 -51h270q54 0 54 51zM442 224v91h-381v-91h381zM323 466h-144v211h144v-211z" />
<glyph unicode="&#xbb;" horiz-adv-x="687" d="M640 260v21l-172 185h-155v-5l179 -191l-178 -189v-5h155zM378 260v21l-172 185h-155v-5l179 -191l-178 -189v-5h155z" />
<glyph unicode="&#xbc;" horiz-adv-x="754" d="M684 55v654q0 27 -15 41t-42 14h-500q-56 0 -56 -55v-654q0 -55 56 -55h500q27 0 42 14t15 41zM569 584h-384v84h384v-84zM569 422h-384v83h384v-83zM569 259h-384v83h384v-83zM569 96h-384v83h384v-83z" />
<glyph unicode="&#xbd;" horiz-adv-x="754" d="M684 55v654q0 27 -15 41t-42 14h-500q-56 0 -56 -55v-654q0 -55 56 -55h500q27 0 42 14t15 41zM569 584h-384v84h384v-84zM569 422h-384v83h384v-83zM569 259h-384v83h384v-83zM569 96h-384v83h384v-83z" />
<glyph unicode="&#xbe;" horiz-adv-x="754" d="M684 55v654q0 27 -15 41t-42 14h-500q-56 0 -56 -55v-654q0 -55 56 -55h500q27 0 42 14t15 41zM569 584h-384v84h384v-84zM569 422h-384v83h384v-83zM569 259h-384v83h384v-83zM569 96h-384v83h384v-83z" />
<glyph unicode="&#xbf;" horiz-adv-x="637" d="M408 633v131h-137v-131h137zM588 70v166h-141v-124h-250v124l184 149q14 13 21 28t7 39v120h-139v-125l-184 -151q-14 -12 -22 -26.5t-8 -37.5v-162q0 -33 18.5 -51.5t51.5 -18.5h392q33 0 51.5 18.5t18.5 51.5z" />
<glyph unicode="&#xc0;" horiz-adv-x="721" d="M697 0v2l-258 762h-156l-258 -762v-2h150l43 140h286l42 -140h151zM465 257h-209l104 340zM463 800v4l-125 142h-191v-5l194 -141h122z" />
<glyph unicode="&#xc1;" horiz-adv-x="721" d="M697 0v2l-258 762h-156l-258 -762v-2h150l43 140h286l42 -140h151zM465 257h-209l104 340zM568 941v5h-191l-123 -142v-4h121z" />
<glyph unicode="&#xc2;" horiz-adv-x="721" d="M697 0v2l-258 762h-156l-258 -762v-2h150l43 140h286l42 -140h151zM465 257h-209l104 340zM547 796v4l-131 140h-111l-131 -140v-4h107l79 63l80 -63h107z" />
<glyph unicode="&#xc3;" horiz-adv-x="721" d="M697 0v2l-258 762h-156l-258 -762v-2h150l43 140h286l42 -140h151zM465 257h-209l104 340zM525 843v102h-94v-52l-145 47q-9 3 -21 5.5t-21 2.5q-20 0 -33 -11t-13 -34v-103h94v52l145 -47q10 -3 21.5 -5.5t19.5 -2.5q20 0 33.5 11.5t13.5 34.5z" />
<glyph unicode="&#xc4;" horiz-adv-x="721" d="M697 0v2l-258 762h-156l-258 -762v-2h150l43 140h286l42 -140h151zM465 257h-209l104 340zM522 800v119h-129v-119h129zM327 800v119h-128v-119h128z" />
<glyph unicode="&#xc5;" horiz-adv-x="721" d="M697 0v2l-251 734h16q36 3 36 46v126q0 47 -47 47h-181q-47 0 -47 -47v-126q0 -43 37 -46h16l-251 -734v-2h150l43 140h286l42 -140h151zM406 802h-91v86h91v-86zM465 257h-209l104 340z" />
<glyph unicode="&#xc6;" horiz-adv-x="1031" d="M984 0v124h-372v206h293v119h-293v191h366v124h-551l-415 -760v-4h146l73 140h235v-140h518zM466 257h-174l174 334v-334z" />
<glyph unicode="&#xc7;" horiz-adv-x="745" d="M673 71v203h-147v-153h-305v522h305v-144h147v194q0 33 -18.5 52t-50.5 19h-463q-32 0 -49.5 -19t-17.5 -52v-622q0 -33 17.5 -52t49.5 -19h184v-32q0 -20 5.5 -28.5t22.5 -15.5l60 -24v-39h-78v37h-94v-60q0 -44 43 -44h180q23 0 32.5 10.5t9.5 33.5v67q0 19 -4.5 28 t-22.5 17l-60 28v22h185q32 0 50.5 19t18.5 52z" />
<glyph unicode="&#xc8;" horiz-adv-x="654" d="M607 0v124h-386v206h309v118h-309v192h381v124h-528v-764h533zM460 800v4l-125 142h-191v-5l194 -141h122z" />
<glyph unicode="&#xc9;" horiz-adv-x="654" d="M607 0v124h-386v206h309v118h-309v192h381v124h-528v-764h533zM518 941v5h-191l-123 -142v-4h121z" />
<glyph unicode="&#xca;" horiz-adv-x="654" d="M607 0v124h-386v206h309v118h-309v192h381v124h-528v-764h533zM527 800v4l-131 140h-111l-131 -140v-4h107l79 63l80 -63h107z" />
<glyph unicode="&#xcb;" horiz-adv-x="654" d="M607 0v124h-386v206h309v118h-309v192h381v124h-528v-764h533zM502 800v119h-129v-119h129zM307 800v119h-128v-119h128z" />
<glyph unicode="&#xcc;" horiz-adv-x="295" d="M221 0v764h-147v-764h147zM254 800v4l-125 142h-191v-5l194 -141h122z" />
<glyph unicode="&#xcd;" horiz-adv-x="295" d="M221 0v764h-147v-764h147zM357 941v5h-191l-123 -142v-4h121z" />
<glyph unicode="&#xce;" horiz-adv-x="295" d="M221 0v764h-147v-764h147zM335 796v4l-131 140h-111l-131 -140v-4h107l79 63l80 -63h107z" />
<glyph unicode="&#xcf;" horiz-adv-x="295" d="M221 0v764h-147v-764h147zM310 800v119h-129v-119h129zM115 800v119h-128v-119h128z" />
<glyph unicode="&#xd0;" horiz-adv-x="753" d="M685 210v342q0 48 -15 87t-43.5 67t-68.5 43t-89 15h-388v-316h-57v-125h57v-323h388q49 0 89 14.5t68 42t43.5 66.5t15.5 87zM538 226q0 -51 -27.5 -77t-80.5 -26h-202v200h139v125h-139v193h203q51 0 79 -26t28 -77v-312z" />
<glyph unicode="&#xd1;" horiz-adv-x="753" d="M679 0v764h-147v-495l-30 53l-280 442h-148v-764h146v495l46 -73l266 -422h147zM539 842v102h-94v-52l-145 47q-9 3 -21 5.5t-21 2.5q-20 0 -33 -11t-13 -34v-103h94v52l145 -47q10 -3 21.5 -5.5t19.5 -2.5q20 0 33.5 11.5t13.5 34.5z" />
<glyph unicode="&#xd2;" horiz-adv-x="757" d="M683 71v622q0 33 -18 52t-50 19h-474q-32 0 -49.5 -19t-17.5 -52v-622q0 -33 17.5 -52t49.5 -19h474q32 0 50 19t18 52zM536 121h-315v522h315v-522zM486 800v4l-125 142h-191v-5l194 -141h122z" />
<glyph unicode="&#xd3;" horiz-adv-x="757" d="M683 71v622q0 33 -18 52t-50 19h-474q-32 0 -49.5 -19t-17.5 -52v-622q0 -33 17.5 -52t49.5 -19h474q32 0 50 19t18 52zM536 121h-315v522h315v-522zM585 941v5h-191l-123 -142v-4h121z" />
<glyph unicode="&#xd4;" horiz-adv-x="757" d="M683 71v622q0 33 -18 52t-50 19h-474q-32 0 -49.5 -19t-17.5 -52v-622q0 -33 17.5 -52t49.5 -19h474q32 0 50 19t18 52zM536 121h-315v522h315v-522zM565 800v4l-131 140h-111l-131 -140v-4h107l79 63l80 -63h107z" />
<glyph unicode="&#xd5;" horiz-adv-x="757" d="M683 71v622q0 33 -18 52t-50 19h-474q-32 0 -49.5 -19t-17.5 -52v-622q0 -33 17.5 -52t49.5 -19h474q32 0 50 19t18 52zM536 121h-315v522h315v-522zM542 843v102h-94v-52l-145 47q-9 3 -21 5.5t-21 2.5q-20 0 -33 -11t-13 -34v-103h94v52l145 -47q10 -3 21.5 -5.5 t19.5 -2.5q20 0 33.5 11.5t13.5 34.5z" />
<glyph unicode="&#xd6;" horiz-adv-x="757" d="M683 71v622q0 33 -18 52t-50 19h-474q-32 0 -49.5 -19t-17.5 -52v-622q0 -33 17.5 -52t49.5 -19h474q32 0 50 19t18 52zM536 121h-315v522h315v-522zM540 800v119h-129v-119h129zM345 800v119h-128v-119h128z" />
<glyph unicode="&#xd7;" horiz-adv-x="754" d="M684 55v654q0 27 -15 41t-42 14h-500q-56 0 -56 -55v-654q0 -55 56 -55h500q27 0 42 14t15 41zM569 584h-384v84h384v-84zM569 422h-384v83h384v-83zM569 259h-384v83h384v-83zM569 96h-384v83h384v-83z" />
<glyph unicode="&#xd8;" horiz-adv-x="757" d="M687 833v6h-153l-38 -75h-355q-32 0 -49.5 -19t-17.5 -52v-622q0 -49 34 -64l-39 -76v-6h152l39 75h355q32 0 50 19t18 52v622q0 49 -35 64zM536 121h-216l216 433v-433zM436 643l-215 -430v430h215z" />
<glyph unicode="&#xd9;" horiz-adv-x="749" d="M676 71v693h-147v-641h-308v641h-147v-693q0 -33 18 -52t51 -19h464q32 0 50.5 19t18.5 52zM482 799v4l-125 142h-191v-5l194 -141h122z" />
<glyph unicode="&#xda;" horiz-adv-x="749" d="M676 71v693h-147v-641h-308v641h-147v-693q0 -33 18 -52t51 -19h464q32 0 50.5 19t18.5 52zM580 941v5h-191l-123 -142v-4h121z" />
<glyph unicode="&#xdb;" horiz-adv-x="749" d="M676 71v693h-147v-641h-308v641h-147v-693q0 -33 18 -52t51 -19h464q32 0 50.5 19t18.5 52zM561 800v4l-131 140h-111l-131 -140v-4h107l79 63l80 -63h107z" />
<glyph unicode="&#xdc;" horiz-adv-x="749" d="M676 71v693h-147v-641h-308v641h-147v-693q0 -33 18 -52t51 -19h464q32 0 50.5 19t18.5 52zM537 799v119h-129v-119h129zM342 799v119h-128v-119h128z" />
<glyph unicode="&#xdd;" horiz-adv-x="708" d="M685 759v5h-156l-175 -352l-174 352h-156v-5l256 -487v-272h148v272zM554 939v5h-191l-123 -142v-4h121z" />
<glyph unicode="&#xde;" horiz-adv-x="708" d="M653 204v362q0 73 -71 73h-361v125h-147v-764h147v132h361q34 0 52.5 18.5t18.5 53.5zM505 250h-284v268h284v-268z" />
<glyph unicode="&#xdf;" horiz-adv-x="614" d="M547 65v211q0 29 -6.5 43.5t-29.5 28.5l-74 46l59 37q23 16 31 30t8 43v125q0 66 -34 100.5t-101 34.5h-333v-764h144v655h128q28 0 39.5 -11.5t11.5 -39.5v-112l-108 -78v-41l122 -85v-182h-117v-106h196q32 0 48 17t16 48z" />
<glyph unicode="&#xe0;" horiz-adv-x="592" d="M528 0v429q0 64 -66 64h-323q-67 0 -67 -64v-87h127v58h192v-101h-261q-35 0 -51 -15.5t-16 -48.5v-176q0 -29 17.5 -45.5t48.5 -16.5q15 0 35 3l226 26v-26h138zM391 108l-191 -12v117h191v-105zM414 531v4l-125 142h-191v-5l194 -141h122z" />
<glyph unicode="&#xe1;" horiz-adv-x="592" d="M528 0v429q0 64 -66 64h-323q-67 0 -67 -64v-87h127v58h192v-101h-261q-35 0 -51 -15.5t-16 -48.5v-176q0 -29 17.5 -45.5t48.5 -16.5q15 0 35 3l226 26v-26h138zM391 108l-191 -12v117h191v-105zM507 672v5h-191l-123 -142v-4h121z" />
<glyph unicode="&#xe2;" horiz-adv-x="592" d="M528 0v429q0 64 -66 64h-323q-67 0 -67 -64v-87h127v58h192v-101h-261q-35 0 -51 -15.5t-16 -48.5v-176q0 -29 17.5 -45.5t48.5 -16.5q15 0 35 3l226 26v-26h138zM391 108l-191 -12v117h191v-105zM489 531v4l-131 140h-111l-131 -140v-4h107l79 63l80 -63h107z" />
<glyph unicode="&#xe3;" horiz-adv-x="592" d="M528 0v429q0 64 -66 64h-323q-67 0 -67 -64v-87h127v58h192v-101h-261q-35 0 -51 -15.5t-16 -48.5v-176q0 -29 17.5 -45.5t48.5 -16.5q15 0 35 3l226 26v-26h138zM391 108l-191 -12v117h191v-105zM467 574v102h-94v-52l-145 47q-9 3 -21 5.5t-21 2.5q-20 0 -33 -11 t-13 -34v-103h94v52l145 -47q10 -3 21.5 -5.5t19.5 -2.5q20 0 33.5 11.5t13.5 34.5z" />
<glyph unicode="&#xe4;" horiz-adv-x="592" d="M528 0v429q0 64 -66 64h-323q-67 0 -67 -64v-87h127v58h192v-101h-261q-35 0 -51 -15.5t-16 -48.5v-176q0 -29 17.5 -45.5t48.5 -16.5q15 0 35 3l226 26v-26h138zM391 108l-191 -12v117h191v-105zM465 531v119h-129v-119h129zM270 531v119h-128v-119h128z" />
<glyph unicode="&#xe5;" horiz-adv-x="592" d="M528 0v429q0 64 -66 64h-323q-67 0 -67 -64v-87h127v58h192v-101h-261q-35 0 -51 -15.5t-16 -48.5v-176q0 -29 17.5 -45.5t48.5 -16.5q15 0 35 3l226 26v-26h138zM391 108l-191 -12v117h191v-105zM441 576v127q0 47 -48 47h-180q-47 0 -47 -47v-127q0 -47 47 -47h180 q48 0 48 47zM349 598h-91v85h91v-85z" />
<glyph unicode="&#xe6;" horiz-adv-x="869" d="M802 64v93h-138v-64h-170v117h270l38 38v181q0 64 -65 64h-598q-67 0 -67 -64v-89h127v60h168v-104h-237q-35 0 -51 -15t-16 -48v-174q0 -29 17.5 -45.5t48.5 -16.5q15 0 35 3l212 26q13 -26 58 -26h303q65 0 65 64zM664 296h-170v104h170v-104zM367 107l-167 -12v115 h167v-103z" />
<glyph unicode="&#xe7;" horiz-adv-x="608" d="M542 64v123h-143v-78h-189v275h189v-73h143v118q0 33 -15.5 48.5t-50.5 15.5h-343q-35 0 -50.5 -15.5t-15.5 -48.5v-365q0 -33 15.5 -48.5t50.5 -15.5h123v-32q0 -20 6 -28.5t23 -15.5l60 -24v-39h-79v37h-93v-60q0 -44 43 -44h180q42 0 42 44v67q0 19 -5 28t-23 17 l-59 28v22h125q35 0 50.5 15.5t15.5 48.5z" />
<glyph unicode="&#xe8;" horiz-adv-x="605" d="M538 64v93h-139v-64h-194v117h295l38 38v181q0 64 -66 64h-339q-35 0 -50.5 -15.5t-15.5 -48.5v-365q0 -33 15.5 -48.5t50.5 -15.5h339q66 0 66 64zM399 296h-194v104h194v-104zM414 531v4l-125 142h-191v-5l194 -141h122z" />
<glyph unicode="&#xe9;" horiz-adv-x="605" d="M538 64v93h-139v-64h-194v117h295l38 38v181q0 64 -66 64h-339q-35 0 -50.5 -15.5t-15.5 -48.5v-365q0 -33 15.5 -48.5t50.5 -15.5h339q66 0 66 64zM399 296h-194v104h194v-104zM506 672v5h-191l-123 -142v-4h121z" />
<glyph unicode="&#xea;" horiz-adv-x="605" d="M538 64v93h-139v-64h-194v117h295l38 38v181q0 64 -66 64h-339q-35 0 -50.5 -15.5t-15.5 -48.5v-365q0 -33 15.5 -48.5t50.5 -15.5h339q66 0 66 64zM399 296h-194v104h194v-104zM489 531v4l-131 140h-111l-131 -140v-4h107l79 63l80 -63h107z" />
<glyph unicode="&#xeb;" horiz-adv-x="605" d="M538 64v93h-139v-64h-194v117h295l38 38v181q0 64 -66 64h-339q-35 0 -50.5 -15.5t-15.5 -48.5v-365q0 -33 15.5 -48.5t50.5 -15.5h339q66 0 66 64zM399 296h-194v104h194v-104zM464 531v119h-129v-119h129zM269 531v119h-128v-119h128z" />
<glyph unicode="&#xec;" horiz-adv-x="279" d="M246 531v4l-125 142h-191v-5l194 -141h122z" />
<glyph unicode="&#xed;" horiz-adv-x="279" d="M349 672v5h-191l-123 -142v-4h121z" />
<glyph unicode="&#xee;" horiz-adv-x="279" d="M328 529v4l-131 140h-111l-131 -140v-4h107l79 63l80 -63h107z" />
<glyph unicode="&#xef;" horiz-adv-x="279" d="M303 531v119h-129v-119h129zM108 531v119h-128v-119h128z" />
<glyph unicode="&#xf0;" horiz-adv-x="611" d="M614 595v106h-5l-60 -22v21q0 64 -66 64h-344q-67 0 -67 -64v-111h143v79h191v-40l-43 -15v-108h5l38 14v-26h-273q-35 0 -50.5 -15.5t-15.5 -48.5v-367q0 -62 67 -62h349q66 0 66 64v507zM406 106h-195v281h195v-281z" />
<glyph unicode="&#xf1;" d="M549 0v434q0 29 -17 45t-49 16q-18 0 -39 -3l-233 -27v28h-144v-493h144v363l194 13v-376h144zM472 574v102h-94v-52l-145 47q-9 3 -21 5.5t-21 2.5q-20 0 -33 -11t-13 -34v-103h94v52l145 -47q10 -3 21.5 -5.5t19.5 -2.5q20 0 33.5 11.5t13.5 34.5z" />
<glyph unicode="&#xf2;" horiz-adv-x="614" d="M547 64v365q0 64 -65 64h-349q-35 0 -50.5 -15.5t-15.5 -48.5v-365q0 -33 15.5 -48.5t50.5 -15.5h349q65 0 65 64zM405 109h-195v275h195v-275zM417 531v4l-125 142h-191v-5l194 -141h122z" />
<glyph unicode="&#xf3;" horiz-adv-x="614" d="M547 64v365q0 64 -65 64h-349q-35 0 -50.5 -15.5t-15.5 -48.5v-365q0 -33 15.5 -48.5t50.5 -15.5h349q65 0 65 64zM405 109h-195v275h195v-275zM511 672v5h-191l-123 -142v-4h121z" />
<glyph unicode="&#xf4;" horiz-adv-x="614" d="M547 64v365q0 64 -65 64h-349q-35 0 -50.5 -15.5t-15.5 -48.5v-365q0 -33 15.5 -48.5t50.5 -15.5h349q65 0 65 64zM405 109h-195v275h195v-275zM494 531v4l-131 140h-111l-131 -140v-4h107l79 63l80 -63h107z" />
<glyph unicode="&#xf5;" horiz-adv-x="614" d="M547 64v365q0 64 -65 64h-349q-35 0 -50.5 -15.5t-15.5 -48.5v-365q0 -33 15.5 -48.5t50.5 -15.5h349q65 0 65 64zM405 109h-195v275h195v-275zM471 574v102h-94v-52l-145 47q-9 3 -21 5.5t-21 2.5q-20 0 -33 -11t-13 -34v-103h94v52l145 -47q10 -3 21.5 -5.5t19.5 -2.5 q20 0 33.5 11.5t13.5 34.5z" />
<glyph unicode="&#xf6;" horiz-adv-x="614" d="M547 64v365q0 64 -65 64h-349q-35 0 -50.5 -15.5t-15.5 -48.5v-365q0 -33 15.5 -48.5t50.5 -15.5h349q65 0 65 64zM405 109h-195v275h195v-275zM469 531v119h-129v-119h129zM274 531v119h-128v-119h128z" />
<glyph unicode="&#xf7;" horiz-adv-x="754" d="M684 55v654q0 27 -15 41t-42 14h-500q-56 0 -56 -55v-654q0 -55 56 -55h500q27 0 42 14t15 41zM569 584h-384v84h384v-84zM569 422h-384v83h384v-83zM569 259h-384v83h384v-83zM569 96h-384v83h384v-83z" />
<glyph unicode="&#xf8;" horiz-adv-x="614" d="M555 565v7h-135l-45 -79h-242q-35 0 -50.5 -15.5t-15.5 -48.5v-365q0 -46 32 -59l-42 -74v-6h135l41 75h249q65 0 65 64v365q0 24 -8.5 39.5t-28.5 20.5zM407 107h-117l117 211v-211zM323 386l-115 -213v213h115z" />
<glyph unicode="&#xf9;" d="M549 0v493h-144v-363l-195 -13v376h-143v-434q0 -29 16.5 -45.5t48.5 -16.5q19 0 40 3l233 27v-27h144zM417 531v4l-125 142h-191v-5l194 -141h122z" />
<glyph unicode="&#xfa;" d="M549 0v493h-144v-363l-195 -13v376h-143v-434q0 -29 16.5 -45.5t48.5 -16.5q19 0 40 3l233 27v-27h144zM511 672v5h-191l-123 -142v-4h121z" />
<glyph unicode="&#xfb;" d="M549 0v493h-144v-363l-195 -13v376h-143v-434q0 -29 16.5 -45.5t48.5 -16.5q19 0 40 3l233 27v-27h144zM495 531v4l-131 140h-111l-131 -140v-4h107l79 63l80 -63h107z" />
<glyph unicode="&#xfc;" d="M549 0v493h-144v-363l-195 -13v376h-143v-434q0 -29 16.5 -45.5t48.5 -16.5q19 0 40 3l233 27v-27h144zM470 531v119h-129v-119h129zM275 531v119h-128v-119h128z" />
<glyph unicode="&#xfd;" horiz-adv-x="578" d="M556 493h-152l-115 -326l-114 326h-153l194 -489l-80 -184h151zM496 672v5h-191l-123 -142v-4h121z" />
<glyph unicode="&#xfe;" d="M549 108v326q0 29 -17 45t-49 16q-18 0 -37 -3l-235 -27v299h-144v-944h144v180h220q63 0 90.5 25.5t27.5 82.5zM405 148q0 -22 -8 -30.5t-31 -8.5h-155v258l194 13v-232z" />
<glyph unicode="&#xff;" horiz-adv-x="578" d="M556 493h-152l-115 -326l-114 326h-153l194 -489l-80 -184h151zM451 531v119h-129v-119h129zM256 531v119h-128v-119h128z" />
<glyph unicode="&#x152;" horiz-adv-x="1067" d="M1020 0v124h-372v206h294v119h-294v191h367v124h-872q-33 0 -51 -19t-18 -52v-622q0 -33 18 -52.5t51 -18.5h877zM501 121h-280v522h280v-522z" />
<glyph unicode="&#x153;" horiz-adv-x="887" d="M821 64v93h-139v-64h-171v117h272l38 38v181q0 32 -16 49t-50 15h-622q-35 0 -50.5 -15.5t-15.5 -48.5v-365q0 -33 15.5 -48.5t50.5 -15.5h622q66 0 66 64zM682 296h-171v104h171v-104zM380 107h-171v279h171v-279z" />
<glyph unicode="&#x178;" horiz-adv-x="708" d="M685 759v5h-156l-175 -352l-174 352h-156v-5l256 -487v-272h148v272zM516 799v119h-129v-119h129zM321 799v119h-128v-119h128z" />
<glyph unicode="&#x2c6;" horiz-adv-x="567" d="M470 531v4l-131 140h-111l-131 -140v-4h107l79 63l80 -63h107z" />
<glyph unicode="&#x2dc;" horiz-adv-x="567" d="M447 574v102h-94v-52l-145 47q-9 3 -21 5.5t-21 2.5q-20 0 -33 -11t-13 -34v-103h94v52l145 -47q10 -3 21.5 -5.5t19.5 -2.5q20 0 33.5 11.5t13.5 34.5z" />
<glyph unicode="&#x2000;" horiz-adv-x="477" />
<glyph unicode="&#x2001;" horiz-adv-x="955" />
<glyph unicode="&#x2002;" horiz-adv-x="477" />
<glyph unicode="&#x2003;" horiz-adv-x="955" />
<glyph unicode="&#x2004;" horiz-adv-x="318" />
<glyph unicode="&#x2005;" horiz-adv-x="238" />
<glyph unicode="&#x2006;" horiz-adv-x="159" />
<glyph unicode="&#x2007;" horiz-adv-x="159" />
<glyph unicode="&#x2008;" horiz-adv-x="119" />
<glyph unicode="&#x2009;" horiz-adv-x="191" />
<glyph unicode="&#x200a;" horiz-adv-x="53" />
<glyph unicode="&#x2010;" horiz-adv-x="424" d="M368 241v118h-312v-118h312z" />
<glyph unicode="&#x2011;" horiz-adv-x="424" d="M368 241v118h-312v-118h312z" />
<glyph unicode="&#x2012;" horiz-adv-x="424" d="M368 241v118h-312v-118h312z" />
<glyph unicode="&#x2013;" horiz-adv-x="542" d="M487 240v119h-431v-119h431z" />
<glyph unicode="&#x2014;" horiz-adv-x="853" d="M797 240v119h-741v-119h741z" />
<glyph unicode="&#x2018;" horiz-adv-x="256" d="M205 764h-87l-73 -241h132z" />
<glyph unicode="&#x2019;" horiz-adv-x="256" d="M211 764h-131l-28 -241h88z" />
<glyph unicode="&#x201a;" horiz-adv-x="256" d="M209 128h-132l-28 -241h88z" />
<glyph unicode="&#x201c;" horiz-adv-x="458" d="M403 764h-87l-73 -241h132zM209 764h-88l-73 -241h132z" />
<glyph unicode="&#x201d;" horiz-adv-x="458" d="M409 764h-131l-29 -241h88zM214 764h-131l-29 -241h88z" />
<glyph unicode="&#x201e;" horiz-adv-x="458" d="M409 128h-131l-29 -241h88zM214 128h-131l-29 -241h88z" />
<glyph unicode="&#x2022;" horiz-adv-x="602" d="M524 243v277q0 77 -77 77h-292q-77 0 -77 -77v-277q0 -77 77 -77h292q77 0 77 77z" />
<glyph unicode="&#x2026;" horiz-adv-x="740" d="M681 0v133h-126v-133h126zM434 0v133h-126v-133h126zM187 0v133h-126v-133h126z" />
<glyph unicode="&#x202f;" horiz-adv-x="191" />
<glyph unicode="&#x2039;" horiz-adv-x="427" d="M371 461v5h-154l-174 -185v-21l173 -184h154v5l-179 189z" />
<glyph unicode="&#x203a;" horiz-adv-x="427" d="M384 260v21l-174 185h-155v-5l181 -191l-179 -189v-5h154z" />
<glyph unicode="&#x205f;" horiz-adv-x="238" />
<glyph unicode="&#x2122;" horiz-adv-x="895" d="M838 336v428h-89l-118 -274l-119 274h-89v-428h84v235l89 -214h69l88 214v-235h85zM380 687v77h-351v-77h132v-351h87v351h132z" />
<glyph unicode="&#x25fc;" horiz-adv-x="495" d="M0 495h495v-495h-495v495z" />
</font>
</defs>
</svg>
